<svg width="36" height="27" viewBox="0 0 36 27" fill="none" xmlns="http://www.w3.org/2000/svg">
<path d="M34.5 10.0468H1.5M16.35 16.6182H8.1M1.5 7.08966L1.5 19.5754C1.5 21.4155 1.5 22.3356 1.85968 23.0385C2.17606 23.6567 2.6809 24.1594 3.30183 24.4744C4.00774 24.8325 4.93183 24.8325 6.78 24.8325L29.22 24.8325C31.0682 24.8325 31.9923 24.8325 32.6982 24.4744C33.3191 24.1594 33.8239 23.6567 34.1403 23.0385C34.5 22.3356 34.5 21.4156 34.5 19.5754V7.08966C34.5 5.24949 34.5 4.32941 34.1403 3.62655C33.8239 3.00831 33.3191 2.50566 32.6982 2.19064C31.9923 1.83252 31.0682 1.83252 29.22 1.83252L6.78 1.83252C4.93183 1.83252 4.00774 1.83252 3.30183 2.19064C2.6809 2.50565 2.17606 3.0083 1.85968 3.62655C1.5 4.3294 1.5 5.24949 1.5 7.08966Z" stroke="#DB1A28" stroke-width="3" stroke-linecap="round" stroke-linejoin="round"/>
</svg>
