<svg width="12" height="12" viewBox="0 0 12 12" fill="none" xmlns="http://www.w3.org/2000/svg">
<path d="M5.61602 6.77656L11.0756 1.31694M5.68236 6.94714L7.04888 10.4611C7.16926 10.7706 7.22945 10.9254 7.31619 10.9706C7.39137 11.0098 7.48094 11.0098 7.55617 10.9707C7.64295 10.9256 7.70333 10.7709 7.82407 10.4615L11.2508 1.6805C11.3598 1.40119 11.4143 1.26153 11.3845 1.17229C11.3586 1.09479 11.2978 1.03397 11.2203 1.00808C11.1311 0.978267 10.9914 1.03277 10.7121 1.14177L1.93107 4.5685C1.62165 4.68925 1.46694 4.74963 1.42185 4.83641C1.38277 4.91164 1.38282 5.00121 1.422 5.07639C1.46718 5.16312 1.62196 5.22332 1.93152 5.3437L5.44544 6.71022C5.50827 6.73466 5.53969 6.74688 5.56615 6.76575C5.5896 6.78248 5.6101 6.80298 5.62683 6.82643C5.6457 6.85289 5.65792 6.88431 5.68236 6.94714Z" stroke="#EEEEEE"/>
</svg>
