<svg width="20" height="23" viewBox="0 0 20 23" fill="none" xmlns="http://www.w3.org/2000/svg">
<path d="M4.5 19.7198H3C1.89543 19.7198 1 18.7885 1 17.6398V3.07997C1 1.93124 1.89543 1 3 1H17C18.1046 1 19 1.93124 19 3.07997V17.6398C19 18.7885 18.1046 19.7198 17 19.7198H15.5M10 18.6798C11.6569 18.6798 13 17.2829 13 15.5598C13 13.8367 11.6569 12.4399 10 12.4399C8.34315 12.4399 7 13.8367 7 15.5598C7 17.2829 8.34315 18.6798 10 18.6798ZM10 18.6798L10.0214 18.6796L6.82867 22L4.00024 19.0585L7.01965 15.9183M10 18.6798L13.1928 22L16.0212 19.0585L13.0018 15.9183M7 5.15995H13M5 8.7999H15" stroke="#DB1A28" stroke-width="1.5" stroke-linecap="round" stroke-linejoin="round"/>
</svg>
