<svg width="18" height="12" viewBox="0 0 18 12" fill="none" xmlns="http://www.w3.org/2000/svg">
<path d="M2.00868 10.9471L0.0737305 1.05291H2.7268L4.00347 8.55333L7.89332 1.05291H10.6062L5.1405 10.9471H2.00868Z" fill="white"/>
<path d="M12.7966 11.1865C11.8923 11.1865 11.121 11.0335 10.4827 10.7277C9.85762 10.4218 9.38552 10.0029 9.06635 9.47094C8.74718 8.93899 8.6142 8.33391 8.66739 7.65568H11.2207C11.2074 8.12113 11.3604 8.50014 11.6795 8.79271C11.9987 9.08528 12.4774 9.23156 13.1158 9.23156C13.6743 9.23156 14.1065 9.11188 14.4124 8.8725C14.7316 8.63313 14.8911 8.32726 14.8911 7.9549C14.8911 7.62243 14.7249 7.38306 14.3924 7.23677C14.06 7.07719 13.6344 6.93755 13.1158 6.81786C12.5705 6.68488 12.0386 6.512 11.5199 6.29922C11.0013 6.08644 10.5691 5.80717 10.2233 5.46141C9.89086 5.11564 9.72463 4.67014 9.72463 4.1249C9.72463 3.48656 9.91081 2.92137 10.2832 2.42932C10.6688 1.92397 11.1941 1.53166 11.8591 1.25239C12.524 0.959824 13.2887 0.81354 14.1531 0.81354C15.3233 0.81354 16.2476 1.09281 16.9258 1.65135C17.6041 2.20989 17.9299 2.96792 17.9033 3.92542H15.4497C15.4364 3.57965 15.2835 3.30038 14.9909 3.0876C14.7116 2.87482 14.3392 2.76844 13.8738 2.76844C13.395 2.76844 13.0027 2.87482 12.6969 3.0876C12.4043 3.28708 12.258 3.53976 12.258 3.84562C12.258 4.13819 12.4309 4.36427 12.7767 4.52385C13.1357 4.67014 13.6012 4.80977 14.173 4.94276C14.7981 5.08904 15.3566 5.26858 15.8486 5.48135C16.354 5.69413 16.7529 5.9734 17.0455 6.31917C17.3514 6.65163 17.5043 7.09049 17.5043 7.63573C17.5043 8.35386 17.2982 8.97889 16.8859 9.51083C16.4737 10.0428 15.9085 10.455 15.1904 10.7476C14.4855 11.0402 13.6876 11.1865 12.7966 11.1865Z" fill="white"/>
</svg>
