<svg width="22" height="17" viewBox="0 0 22 17" fill="none" xmlns="http://www.w3.org/2000/svg">
<path d="M18.7292 1.77163C17.3907 1.15773 15.9554 0.705444 14.4547 0.446399C14.4274 0.4414 14.4001 0.453894 14.386 0.478882C14.2014 0.807059 13.997 1.23519 13.8538 1.57171C12.2397 1.33016 10.6339 1.33016 9.05286 1.57171C8.90964 1.22771 8.69775 0.807059 8.51233 0.478882C8.49825 0.454727 8.47095 0.442233 8.44362 0.446399C6.94375 0.704616 5.50844 1.1569 4.16915 1.77163C4.15755 1.77662 4.14761 1.78496 4.14102 1.79578C1.41855 5.86141 0.672747 9.82712 1.03861 13.7437C1.04027 13.7628 1.05103 13.7811 1.06593 13.7928C2.86214 15.1113 4.60207 15.9118 6.3097 16.4424C6.33703 16.4507 6.36598 16.4407 6.38337 16.4182C6.78731 15.8668 7.14739 15.2854 7.45612 14.674C7.47434 14.6382 7.45695 14.5958 7.41971 14.5816C6.84857 14.365 6.30473 14.101 5.78159 13.8011C5.74021 13.777 5.7369 13.7178 5.77497 13.6895C5.88505 13.607 5.99517 13.5212 6.10029 13.4346C6.11931 13.4188 6.14581 13.4154 6.16817 13.4254C9.60495 14.9939 13.3257 14.9939 16.7219 13.4254C16.7443 13.4146 16.7708 13.418 16.7906 13.4338C16.8958 13.5204 17.0059 13.607 17.1168 13.6895C17.1548 13.7178 17.1524 13.777 17.111 13.8011C16.5878 14.1068 16.044 14.365 15.472 14.5808C15.4348 14.5949 15.4182 14.6382 15.4364 14.674C15.7518 15.2846 16.1119 15.866 16.5084 16.4174C16.5249 16.4407 16.5547 16.4507 16.582 16.4424C18.2979 15.9118 20.0379 15.1113 21.8341 13.7928C21.8498 13.7811 21.8598 13.7636 21.8614 13.7445C22.2993 9.21653 21.128 5.28335 18.7565 1.79661C18.7507 1.78496 18.7408 1.77662 18.7292 1.77163ZM7.96935 11.3589C6.93464 11.3589 6.08207 10.4093 6.08207 9.2432C6.08207 8.07706 6.91811 7.12751 7.96935 7.12751C9.02884 7.12751 9.87316 8.0854 9.8566 9.2432C9.8566 10.4093 9.02056 11.3589 7.96935 11.3589ZM14.9472 11.3589C13.9126 11.3589 13.06 10.4093 13.06 9.2432C13.06 8.07706 13.896 7.12751 14.9472 7.12751C16.0068 7.12751 16.851 8.0854 16.8345 9.2432C16.8345 10.4093 16.0068 11.3589 14.9472 11.3589Z" fill="white"/>
</svg>
