<svg width="16" height="11" viewBox="0 0 16 11" fill="none" xmlns="http://www.w3.org/2000/svg">
<path d="M13.0907 0.91184C12.1347 0.489789 11.1094 0.17884 10.0375 0.000747078C10.018 -0.00269007 9.99849 0.00589954 9.98844 0.0230792C9.85658 0.248701 9.71054 0.543043 9.60826 0.774395C8.45533 0.608331 7.30832 0.608331 6.17903 0.774395C6.07673 0.537901 5.92538 0.248701 5.79294 0.0230792C5.78288 0.00647274 5.76338 -0.00211687 5.74386 0.000747078C4.67252 0.178271 3.6473 0.48922 2.69066 0.91184C2.68238 0.915275 2.67528 0.921007 2.67057 0.928446C0.725948 3.72357 0.193234 6.44999 0.454566 9.14261C0.455748 9.15578 0.463434 9.16838 0.474077 9.17639C1.75708 10.0829 2.9999 10.6332 4.21963 10.998C4.23915 11.0037 4.25983 10.9969 4.27225 10.9814C4.56078 10.6023 4.81798 10.2026 5.0385 9.78225C5.05151 9.75764 5.03909 9.72843 5.01249 9.71869C4.60454 9.5698 4.21608 9.38827 3.84241 9.18212C3.81285 9.16552 3.81049 9.12484 3.83768 9.10537C3.91631 9.04868 3.99497 8.9897 4.07005 8.93014C4.08363 8.91927 4.10256 8.91697 4.11854 8.92384C6.57338 10.0022 9.23104 10.0022 11.6569 8.92384C11.6729 8.9164 11.6918 8.9187 11.706 8.92957C11.7811 8.98913 11.8597 9.04868 11.939 9.10537C11.9662 9.12484 11.9644 9.16552 11.9348 9.18212C11.5612 9.39227 11.1727 9.5698 10.7641 9.71812C10.7375 9.72786 10.7257 9.75764 10.7387 9.78225C10.964 10.202 11.2212 10.6017 11.5044 10.9808C11.5162 10.9969 11.5375 11.0037 11.557 10.998C12.7827 10.6332 14.0255 10.0829 15.3085 9.17639C15.3197 9.16838 15.3268 9.15635 15.328 9.14318C15.6408 6.03022 14.8041 3.32615 13.1102 0.929015C13.1061 0.921007 13.099 0.915275 13.0907 0.91184ZM5.40509 7.50308C4.66601 7.50308 4.05704 6.85027 4.05704 6.04855C4.05704 5.24683 4.6542 4.59401 5.40509 4.59401C6.16187 4.59401 6.76496 5.25256 6.75313 6.04855C6.75313 6.85027 6.15596 7.50308 5.40509 7.50308ZM10.3893 7.50308C9.65024 7.50308 9.04126 6.85027 9.04126 6.04855C9.04126 5.24683 9.63841 4.59401 10.3893 4.59401C11.1461 4.59401 11.7492 5.25256 11.7374 6.04855C11.7374 6.85027 11.1461 7.50308 10.3893 7.50308Z" fill="white"/>
</svg>
