<svg width="14" height="16" viewBox="0 0 14 16" fill="none" xmlns="http://www.w3.org/2000/svg">
<path d="M3.21029 13.3183H2.21029C1.47391 13.3183 0.876953 12.6975 0.876953 11.9317V2.22515C0.876953 1.45932 1.47391 0.838501 2.21029 0.838501H11.5436C12.28 0.838501 12.877 1.45933 12.877 2.22515V11.9317C12.877 12.6975 12.28 13.3183 11.5436 13.3183H10.5436M6.87695 12.625C7.98152 12.625 8.87695 11.6938 8.87695 10.545C8.87695 9.39631 7.98152 8.46507 6.87695 8.46507C5.77238 8.46507 4.87695 9.39631 4.87695 10.545C4.87695 11.6938 5.77238 12.625 6.87695 12.625ZM6.87695 12.625L6.89125 12.6249L4.76273 14.8385L2.87712 12.8775L4.89005 10.7841M6.87695 12.625L9.0055 14.8385L10.8911 12.8775L8.87817 10.7841M4.87695 3.6118H8.87695M3.54362 6.03844H10.2103" stroke="#686868" stroke-width="1.5" stroke-linecap="round" stroke-linejoin="round"/>
</svg>
