<svg width="18" height="14" viewBox="0 0 18 14" fill="none" xmlns="http://www.w3.org/2000/svg">
<path d="M8.87695 12.8385H3.43695C2.54087 12.8385 2.09283 12.8385 1.75057 12.675C1.44951 12.5312 1.20474 12.3017 1.05134 12.0195C0.876953 11.6986 0.876953 11.2786 0.876953 10.4385V3.2385C0.876953 2.39842 0.876953 1.97838 1.05134 1.65752C1.20474 1.37527 1.44951 1.1458 1.75057 1.00199C2.09283 0.838501 2.54087 0.838501 3.43695 0.838501H3.75695C5.54912 0.838501 6.44521 0.838501 7.12972 1.16548C7.73184 1.4531 8.22138 1.91204 8.52817 2.47653C8.87695 3.11826 8.87695 3.95834 8.87695 5.6385M8.87695 12.8385V5.6385M8.87695 12.8385H14.317C15.213 12.8385 15.6611 12.8385 16.0033 12.675C16.3044 12.5312 16.5492 12.3017 16.7026 12.0195C16.877 11.6986 16.877 11.2786 16.877 10.4385V3.2385C16.877 2.39842 16.877 1.97838 16.7026 1.65752C16.5492 1.37527 16.3044 1.1458 16.0033 1.00199C15.6611 0.838501 15.213 0.838501 14.317 0.838501H13.997C12.2048 0.838501 11.3087 0.838501 10.6242 1.16548C10.0221 1.4531 9.53253 1.91204 9.22573 2.47653C8.87695 3.11826 8.87695 3.95834 8.87695 5.6385" stroke="#686868" stroke-width="1.5" stroke-linecap="round" stroke-linejoin="round"/>
</svg>
