<svg width="20" height="21" viewBox="0 0 20 21" fill="none" xmlns="http://www.w3.org/2000/svg">
<path d="M8 6.66898C8.1762 6.16811 8.52397 5.74575 8.98173 5.47672C9.43949 5.20769 9.9777 5.10935 10.501 5.19911C11.0243 5.28888 11.499 5.56095 11.8409 5.96715C12.1829 6.37335 12.37 6.88746 12.3692 7.41843C12.3692 8.91731 10.1209 9.66675 10.1209 9.66675M10.1499 12.6667H10.1599M7.9 17.3667L9.36 19.3134C9.57712 19.6029 9.68568 19.7477 9.81876 19.7994C9.93534 19.8447 10.0647 19.8447 10.1812 19.7994C10.3143 19.7477 10.4229 19.6029 10.64 19.3134L12.1 17.3667C12.3931 16.9759 12.5397 16.7805 12.7185 16.6312C12.9569 16.4323 13.2383 16.2916 13.5405 16.2203C13.7671 16.1667 14.0114 16.1667 14.5 16.1667C15.8978 16.1667 16.5967 16.1667 17.1481 15.9384C17.8831 15.6339 18.4672 15.0499 18.7716 14.3148C19 13.7635 19 13.0646 19 11.6667V5.96675C19 4.28659 19 3.44651 18.673 2.80478C18.3854 2.24029 17.9265 1.78135 17.362 1.49373C16.7202 1.16675 15.8802 1.16675 14.2 1.16675H5.8C4.11984 1.16675 3.27976 1.16675 2.63803 1.49373C2.07354 1.78135 1.6146 2.24029 1.32698 2.80478C1 3.44651 1 4.28659 1 5.96675V11.6667C1 13.0646 1 13.7635 1.22836 14.3148C1.53284 15.0499 2.11687 15.6339 2.85195 15.9384C3.40326 16.1667 4.10218 16.1667 5.5 16.1667C5.98858 16.1667 6.23287 16.1667 6.45951 16.2203C6.76169 16.2916 7.04312 16.4323 7.2815 16.6312C7.46028 16.7805 7.60685 16.9759 7.9 17.3667Z" stroke="#DB1A28" stroke-width="2" stroke-linecap="round" stroke-linejoin="round"/>
</svg>
