<svg id="Group_2" data-name="Group 2" xmlns="http://www.w3.org/2000/svg" width="50.195" height="60.75" viewBox="0 0 50.195 60.75">
  <g id="Group_1" data-name="Group 1" transform="translate(0.103 6.883)" opacity="0.44">
    <g id="Path_1" data-name="Path 1" transform="translate(-14.376 -8)" fill="#707070">
      <path d="M 63.96874618530273 15.31477546691895 C 63.38964462280273 14.09735774993896 62.5384521484375 12.65355491638184 61.37299728393555 11.48495483398438 C 58.9077262878418 9.013045310974121 54.80596923828125 7.572104930877686 54.6325569152832 7.511975288391113 L 54.5522575378418 7.484125137329102 L 54.46726608276367 7.484375 L 39.36044692993164 7.528954982757568 L 14.77334785461426 7.601505279541016 L 14.77334785461426 1.668193340301514 L 63.96874618530273 1.617787957191467 L 63.96874618530273 15.31477546691895 Z" stroke="none"/>
      <path d="M 63.46875 2.118301391601562 L 15.27334976196289 2.167680740356445 L 15.27334976196289 7.10002613067627 L 54.63578033447266 6.983875274658203 L 54.79637908935547 7.039565086364746 C 54.97422027587891 7.101235389709473 59.18132781982422 8.579315185546875 61.72702026367188 11.13187503814697 C 62.40908813476562 11.81578254699707 62.98688125610352 12.5892162322998 63.46875 13.35977745056152 L 63.46875 2.118301391601562 M 64.46875 1.117275238037109 L 64.46875 17.984375 C 64.46875 17.984375 63.43122863769531 14.25679492950439 61.01895904541016 11.83803558349609 C 58.60671997070312 9.419275283813477 54.46875 7.984375 54.46875 7.984375 L 14.27334594726562 8.102985382080078 L 14.27334594726562 1.168704986572266 L 64.46875 1.117275238037109 Z" stroke="none" fill="#707070"/>
    </g>
    <g id="Path_3" data-name="Path 3" transform="translate(-54.572 -8)" fill="#707070">
      <path d="M 54.96875 15.33518695831299 L 54.96875 8.484375 L 62.09656524658203 8.484375 C 60.68838119506836 9.162984848022461 58.91516876220703 10.17970275878906 57.60184097290039 11.48314476013184 C 56.41721343994141 12.65886306762695 55.55405044555664 14.11301898956299 54.96875 15.33518695831299 Z" stroke="none"/>
      <path d="M 55.46875 8.984375 L 55.46875 13.38995361328125 C 55.95980453491211 12.60824298858643 56.55056762695312 11.82206439971924 57.24962997436523 11.12826538085938 C 58.08910369873047 10.29510402679443 59.10742568969727 9.576530456542969 60.10455322265625 8.984375 L 55.46875 8.984375 M 54.46875 7.984375 L 64.57173156738281 7.984375 C 64.57173156738281 7.984375 60.39115142822266 9.419275283813477 57.95405960083008 11.83803462982178 C 55.51696014404297 14.25679492950439 54.46875 17.984375 54.46875 17.984375 L 54.46875 7.984375 Z" stroke="none" fill="#707070"/>
    </g>
    <g id="Path_4" data-name="Path 4" transform="translate(-14.376 32.016)" fill="#707070">
      <path d="M 63.96875 17.484375 L 56.92088317871094 17.484375 C 58.31549835205078 16.80553817749023 60.07205200195312 15.78824615478516 61.37298965454102 14.48379516601562 C 62.53844451904297 13.31519508361816 63.38964462280273 11.87138080596924 63.96875 10.65396308898926 L 63.96875 17.484375 Z" stroke="none"/>
      <path d="M 63.46875 16.984375 L 63.46875 12.60896396636963 C 62.98688507080078 13.3795223236084 62.40908813476562 14.15296077728271 61.72702026367188 14.83686542510986 C 60.89451217651367 15.67162227630615 59.88443374633789 16.39140129089355 58.89558792114258 16.984375 L 63.46875 16.984375 M 64.46875 17.984375 L 54.46875 17.984375 C 54.46875 17.984375 58.60671997070312 16.54947471618652 61.01895904541016 14.13071537017822 C 63.43122100830078 11.71195507049561 64.46875 7.984375 64.46875 7.984375 L 64.46875 17.984375 Z" stroke="none" fill="#707070"/>
    </g>
    <g id="Path_5" data-name="Path 5" transform="translate(-14.376 38.883)" fill="#707070">
      <path d="M 14.77334785461426 14.48386192321777 L 14.77334785461426 3.786871433258057 C 15.35245323181152 5.004289627075195 16.20364761352539 6.448095321655273 17.36910820007324 7.616694927215576 C 19.83435821533203 10.08860492706299 23.93612861633301 11.52954483032227 24.10953712463379 11.589674949646 L 24.18983840942383 11.61752510070801 L 24.27482795715332 11.61727523803711 L 39.38164901733398 11.57269477844238 L 63.96874618530273 11.50014495849609 L 63.96874618530273 14.43345642089844 L 14.77334785461426 14.48386192321777 Z" stroke="none"/>
      <path d="M 15.27334785461426 13.98334980010986 L 63.46874618530273 13.93396854400635 L 63.46874618530273 12.00162410736084 L 24.1063175201416 12.11777496337891 L 23.94571876525879 12.06208515167236 C 23.76787757873535 12.00041484832764 19.56076812744141 10.52233505249023 17.01507759094238 7.969775199890137 C 16.33300590515137 7.285867691040039 15.75521373748779 6.512434005737305 15.27334785461426 5.741873264312744 L 15.27334785461426 13.98334980010986 M 14.27334785461426 14.984375 L 14.27334785461426 1.11727511882782 C 14.27334785461426 1.11727511882782 15.31086826324463 4.844855308532715 17.7231388092041 7.263615131378174 C 20.13537788391113 9.682374954223633 24.27334785461426 11.11727523803711 24.27334785461426 11.11727523803711 L 64.46875 10.99866485595703 L 64.46875 14.93294525146484 L 14.27334785461426 14.984375 Z" stroke="none" fill="#707070"/>
    </g>
  </g>
</svg>
