<svg width="16" height="16" viewBox="0 0 16 16" fill="none" xmlns="http://www.w3.org/2000/svg">
<path d="M2.94325 14.3385H12.9054M1.1643 5.2385H14.6843M6.50115 1.3385L5.07799 5.2385L7.92432 12.0635L10.7706 5.2385L9.34748 1.3385M8.34554 11.9653L14.7068 5.57344C14.8249 5.45472 14.884 5.39535 14.9076 5.32776C14.9283 5.2682 14.9298 5.20443 14.9119 5.14411C14.8916 5.07565 14.8353 5.01402 14.7229 4.89076L11.6529 1.52561C11.5902 1.45683 11.5588 1.42244 11.5203 1.39772C11.4863 1.37582 11.4482 1.35955 11.408 1.34966C11.3626 1.3385 11.3136 1.3385 11.2156 1.3385H4.63304C4.53503 1.3385 4.48603 1.3385 4.44062 1.34966C4.40038 1.35955 4.36236 1.37582 4.32829 1.39772C4.28983 1.42244 4.25846 1.45683 4.19572 1.52561L1.12575 4.89076C1.0133 5.01402 0.957069 5.07565 0.936734 5.14411C0.918814 5.20443 0.920317 5.2682 0.941065 5.32776C0.964609 5.39535 1.02369 5.45472 1.14185 5.57344L7.50309 11.9653C7.64912 12.112 7.72214 12.1853 7.80795 12.2125C7.88333 12.2363 7.9653 12.2363 8.04068 12.2125C8.1265 12.1853 8.19951 12.112 8.34554 11.9653Z" stroke="#686868" stroke-width="1.5" stroke-linecap="round" stroke-linejoin="round"/>
</svg>
