<svg xmlns="http://www.w3.org/2000/svg" width="1067" height="59.368" viewBox="0 0 1067 59.368">
  <path id="Path_1" data-name="Path 1" d="M-140,0H405V3.4S385.409,3.4,382.589,5.409s-3.871,6.388-3.871,6.388a129.741,129.741,0,0,0-1.09,16.63c0,9.1,1.09,19.76,1.09,19.76s1.051,4.065,3.871,6S405,56.41,405,56.41v2.958H-140Z" transform="translate(140)"/>
  <path id="Path_2" data-name="Path 2" d="M510,0H-13V3.4S4.591,3.4,7.411,5.409,11.283,11.8,11.283,11.8s.8,7.8.8,16.894-.8,19.5-.8,19.5-1.051,4.065-3.871,6S-13,56.41-13,56.41v2.958H510Z" transform="translate(557)"/>
</svg>
