

<svg width="676" height="145" viewBox="0 0 676 45" fill="none" xmlns="http://www.w3.org/2000/svg">
<rect x="-5" y="-27.8677" width="20" height="300" transform="rotate(-13 0.879298 -27.8677)" fill="url(#paint0_linear_503_21882)"  stroke-width="0.5"/>
<rect x="20" y="-27.8677" width="20" height="300" transform="rotate(-13 26.3167 -27.8677)" fill="url(#paint1_linear_503_21882)"  stroke-width="0.5"/>
<rect x="45" y="-27.8677" width="20" height="300" transform="rotate(-13 51.7539 -27.8677)" fill="url(#paint2_linear_503_21882)"  stroke-width="0.5"/>
<rect x="70" y="-27.8677" width="20" height="300" transform="rotate(-13 77.1913 -27.8677)" fill="url(#paint3_linear_503_21882)"  stroke-width="0.5"/>
<rect x="95" y="-27.8677" width="20" height="300" transform="rotate(-13 102.629 -27.8677)" fill="url(#paint4_linear_503_21882)"  stroke-width="0.5"/>
<rect x="120" y="-27.8677" width="20" height="300" transform="rotate(-13 128.066 -27.8677)" fill="url(#paint5_linear_503_21882)"  stroke-width="0.5"/>
<rect x="145" y="-27.8677" width="20" height="300" transform="rotate(-13 153.503 -27.8677)" fill="url(#paint6_linear_503_21882)"  stroke-width="0.5"/>
<rect x="167" y="-27.8677" width="20" height="300" transform="rotate(-13 77.1913 -27.8677)" fill="url(#paint3_linear_503_21882)"  stroke-width="0.5"/>
<rect x="192" y="-27.8677" width="20" height="300" transform="rotate(-13 102.629 -27.8677)" fill="url(#paint4_linear_503_21882)"  stroke-width="0.5"/>
<rect x="220" y="-27.8677" width="20" height="300" transform="rotate(-13 128.066 -27.8677)" fill="url(#paint5_linear_503_21882)"  stroke-width="0.5"/>
<rect x="245" y="-27.8677" width="20" height="300" transform="rotate(-13 153.503 -27.8677)" fill="url(#paint6_linear_503_21882)"  stroke-width="0.5"/>
<rect x="270" y="-27.8677" width="20" height="300" transform="rotate(-13 77.1913 -27.8677)" fill="url(#paint3_linear_503_21882)"  stroke-width="0.5"/>
<rect x="295" y="-27.8677" width="20" height="300" transform="rotate(-13 102.629 -27.8677)" fill="url(#paint4_linear_503_21882)"  stroke-width="0.5"/>
<rect x="320" y="-27.8677" width="20" height="300" transform="rotate(-13 128.066 -27.8677)" fill="url(#paint5_linear_503_21882)"  stroke-width="0.5"/>
<rect x="345" y="-27.8677" width="20" height="300" transform="rotate(-13 153.503 -27.8677)" fill="url(#paint6_linear_503_21882)"  stroke-width="0.5"/>
<rect x="370" y="-27.8677" width="20" height="300" transform="rotate(-13 77.1913 -27.8677)" fill="url(#paint3_linear_503_21882)"  stroke-width="0.5"/>
<rect x="395" y="-27.8677" width="20" height="300" transform="rotate(-13 102.629 -27.8677)" fill="url(#paint4_linear_503_21882)"  stroke-width="0.5"/>
<rect x="420" y="-27.8677" width="20" height="300" transform="rotate(-13 128.066 -27.8677)" fill="url(#paint5_linear_503_21882)"  stroke-width="0.5"/>
<rect x="445" y="-27.8677" width="20" height="300" transform="rotate(-13 153.503 -27.8677)" fill="url(#paint6_linear_503_21882)"  stroke-width="0.5"/>
<rect x="470" y="-27.8677" width="20" height="300" transform="rotate(-13 77.1913 -27.8677)" fill="url(#paint3_linear_503_21882)"  stroke-width="0.5"/>
<rect x="495" y="-27.8677" width="20" height="300" transform="rotate(-13 102.629 -27.8677)" fill="url(#paint4_linear_503_21882)"  stroke-width="0.5"/>
<rect x="520" y="-27.8677" width="20" height="300" transform="rotate(-13 128.066 -27.8677)" fill="url(#paint5_linear_503_21882)"  stroke-width="0.5"/>
<rect x="545" y="-27.8677" width="20" height="300" transform="rotate(-13 153.503 -27.8677)" fill="url(#paint6_linear_503_21882)"  stroke-width="0.5"/>
<rect x="570" y="-27.8677" width="20" height="300" transform="rotate(-13 77.1913 -27.8677)" fill="url(#paint3_linear_503_21882)"  stroke-width="0.5"/>
<rect x="595" y="-27.8677" width="20" height="300" transform="rotate(-13 102.629 -27.8677)" fill="url(#paint4_linear_503_21882)"  stroke-width="0.5"/>
<rect x="620" y="-27.8677" width="20" height="300" transform="rotate(-13 128.066 -27.8677)" fill="url(#paint5_linear_503_21882)"  stroke-width="0.5"/>
<rect x="645" y="-27.8677" width="20" height="300" transform="rotate(-13 153.503 -27.8677)" fill="url(#paint6_linear_503_21882)"  stroke-width="0.5"/>
<rect x="670" y="-27.8677" width="20" height="300" transform="rotate(-13 77.1913 -27.8677)" fill="url(#paint3_linear_503_21882)"  stroke-width="0.5"/>
<rect x="695" y="-27.8677" width="20" height="300" transform="rotate(-13 102.629 -27.8677)" fill="url(#paint4_linear_503_21882)"  stroke-width="0.5"/>
<rect x="720" y="-27.8677" width="20" height="300" transform="rotate(-13 128.066 -27.8677)" fill="url(#paint5_linear_503_21882)"  stroke-width="0.5"/>
<rect x="745" y="-27.8677" width="20" height="300" transform="rotate(-13 153.503 -27.8677)" fill="url(#paint6_linear_503_21882)"  stroke-width="0.5"/>
<defs>
<linearGradient id="paint0_linear_503_21882" x1="10.6731" y1="-28.055" x2="10.6731" y2="82.0464" gradientUnits="userSpaceOnUse">
<stop stop-color="white"/>
<stop offset="1" stop-color="gray"/>
</linearGradient>
<linearGradient id="paint1_linear_503_21882" x1="36.1105" y1="-28.055" x2="36.1105" y2="82.0464" gradientUnits="userSpaceOnUse">
<stop stop-color="white"/>
<stop offset="1" stop-color="gray"/>
</linearGradient>
<linearGradient id="paint2_linear_503_21882" x1="61.5478" y1="-28.055" x2="61.5478" y2="82.0464" gradientUnits="userSpaceOnUse">
<stop stop-color="white"/>
<stop offset="1" stop-color="gray"/>
</linearGradient>
<linearGradient id="paint3_linear_503_21882" x1="86.9851" y1="-28.055" x2="86.9851" y2="82.0464" gradientUnits="userSpaceOnUse">
<stop stop-color="white"/>
<stop offset="1" stop-color="gray"/>
</linearGradient>
<linearGradient id="paint4_linear_503_21882" x1="112.423" y1="-28.055" x2="112.423" y2="82.0464" gradientUnits="userSpaceOnUse">
<stop stop-color="white"/>
<stop offset="1" stop-color="gray"/>
</linearGradient>
<linearGradient id="paint5_linear_503_21882" x1="137.86" y1="-28.055" x2="137.86" y2="82.0464" gradientUnits="userSpaceOnUse">
<stop stop-color="white"/>
<stop offset="1" stop-color="gray"/>
</linearGradient>
<linearGradient id="paint6_linear_503_21882" x1="163.297" y1="-28.055" x2="163.297" y2="82.0464" gradientUnits="userSpaceOnUse">
<stop stop-color="white"/>
<stop offset="1" stop-color="gray"/>
</linearGradient>
</defs>
</svg>
