<svg width="676" height="45" viewBox="0 0 676 45" fill="none" xmlns="http://www.w3.org/2000/svg">
<rect x="-2" y="-27.8677" width="9" height="195" transform="rotate(-13 0.879298 -27.8677)" fill="url(#paint0_linear_503_21882)"  stroke-width="0.5"/>
<rect x="10" y="-27.8677" width="9" height="195" transform="rotate(-13 26.3167 -27.8677)" fill="url(#paint1_linear_503_21882)"  stroke-width="0.5"/>
<rect x="22" y="-27.8677" width="9" height="195" transform="rotate(-13 51.7539 -27.8677)" fill="url(#paint2_linear_503_21882)"  stroke-width="0.5"/>
<rect x="34" y="-27.8677" width="9" height="195" transform="rotate(-13 77.1913 -27.8677)" fill="url(#paint3_linear_503_21882)"  stroke-width="0.5"/>
<rect x="46" y="-27.8677" width="9" height="195" transform="rotate(-13 102.629 -27.8677)" fill="url(#paint4_linear_503_21882)"  stroke-width="0.5"/>
<rect x="58" y="-27.8677" width="9" height="195" transform="rotate(-13 128.066 -27.8677)" fill="url(#paint5_linear_503_21882)"  stroke-width="0.5"/>
<rect x="70" y="-27.8677" width="9" height="195" transform="rotate(-13 153.503 -27.8677)" fill="url(#paint6_linear_503_21882)"  stroke-width="0.5"/>
<rect x="82" y="-27.8677" width="9" height="195" transform="rotate(-13 153.503 -27.8677)" fill="url(#paint6_linear_503_21882)"  stroke-width="0.5"/>
<rect x="94" y="-27.8677" width="9" height="195" transform="rotate(-13 153.503 -27.8677)" fill="url(#paint6_linear_503_21882)"  stroke-width="0.5"/>
<rect x="106" y="-27.8677" width="9" height="195" transform="rotate(-13 153.503 -27.8677)" fill="url(#paint6_linear_503_21882)"  stroke-width="0.5"/>
<rect x="118" y="-27.8677" width="9" height="195" transform="rotate(-13 153.503 -27.8677)" fill="url(#paint6_linear_503_21882)"  stroke-width="0.5"/>
<rect x="130" y="-27.8677" width="9" height="195" transform="rotate(-13 153.503 -27.8677)" fill="url(#paint6_linear_503_21882)"  stroke-width="0.5"/>
<rect x="142" y="-27.8677" width="9" height="195" transform="rotate(-13 153.503 -27.8677)" fill="url(#paint6_linear_503_21882)"  stroke-width="0.5"/>
<rect x="154" y="-27.8677" width="9" height="195" transform="rotate(-13 153.503 -27.8677)" fill="url(#paint6_linear_503_21882)"  stroke-width="0.5"/>
<rect x="166" y="-27.8677" width="9" height="195" transform="rotate(-13 153.503 -27.8677)" fill="url(#paint6_linear_503_21882)"  stroke-width="0.5"/>
<rect x="178" y="-27.8677" width="9" height="195" transform="rotate(-13 153.503 -27.8677)" fill="url(#paint6_linear_503_21882)"  stroke-width="0.5"/>
<rect x="190" y="-27.8677" width="9" height="195" transform="rotate(-13 153.503 -27.8677)" fill="url(#paint6_linear_503_21882)"  stroke-width="0.5"/>
<rect x="202" y="-27.8677" width="9" height="195" transform="rotate(-13 153.503 -27.8677)" fill="url(#paint6_linear_503_21882)"  stroke-width="0.5"/>
<rect x="214" y="-27.8677" width="9" height="195" transform="rotate(-13 153.503 -27.8677)" fill="url(#paint6_linear_503_21882)"  stroke-width="0.5"/>
<rect x="226" y="-27.8677" width="9" height="195" transform="rotate(-13 153.503 -27.8677)" fill="url(#paint6_linear_503_21882)"  stroke-width="0.5"/>
<rect x="238" y="-27.8677" width="9" height="195" transform="rotate(-13 153.503 -27.8677)" fill="url(#paint6_linear_503_21882)"  stroke-width="0.5"/>
<rect x="250" y="-27.8677" width="9" height="195" transform="rotate(-13 153.503 -27.8677)" fill="url(#paint6_linear_503_21882)"  stroke-width="0.5"/>
<rect x="262" y="-27.8677" width="9" height="195" transform="rotate(-13 153.503 -27.8677)" fill="url(#paint6_linear_503_21882)"  stroke-width="0.5"/>
<rect x="274" y="-27.8677" width="9" height="195" transform="rotate(-13 153.503 -27.8677)" fill="url(#paint6_linear_503_21882)"  stroke-width="0.5"/>
<rect x="286" y="-27.8677" width="9" height="195" transform="rotate(-13 153.503 -27.8677)" fill="url(#paint6_linear_503_21882)"  stroke-width="0.5"/>
<rect x="298" y="-27.8677" width="9" height="195" transform="rotate(-13 153.503 -27.8677)" fill="url(#paint6_linear_503_21882)"  stroke-width="0.5"/>
<rect x="310" y="-27.8677" width="9" height="195" transform="rotate(-13 153.503 -27.8677)" fill="url(#paint6_linear_503_21882)"  stroke-width="0.5"/>
<rect x="322" y="-27.8677" width="9" height="195" transform="rotate(-13 153.503 -27.8677)" fill="url(#paint6_linear_503_21882)"  stroke-width="0.5"/>
<rect x="334" y="-27.8677" width="9" height="195" transform="rotate(-13 153.503 -27.8677)" fill="url(#paint6_linear_503_21882)"  stroke-width="0.5"/>
<rect x="346" y="-27.8677" width="9" height="195" transform="rotate(-13 153.503 -27.8677)" fill="url(#paint6_linear_503_21882)"  stroke-width="0.5"/>
<rect x="358" y="-27.8677" width="9" height="195" transform="rotate(-13 153.503 -27.8677)" fill="url(#paint6_linear_503_21882)"  stroke-width="0.5"/>
<rect x="370" y="-27.8677" width="9" height="195" transform="rotate(-13 153.503 -27.8677)" fill="url(#paint6_linear_503_21882)"  stroke-width="0.5"/>
<rect x="382" y="-27.8677" width="9" height="195" transform="rotate(-13 153.503 -27.8677)" fill="url(#paint6_linear_503_21882)"  stroke-width="0.5"/>
<rect x="394" y="-27.8677" width="9" height="195" transform="rotate(-13 153.503 -27.8677)" fill="url(#paint6_linear_503_21882)"  stroke-width="0.5"/>
<rect x="406" y="-27.8677" width="9" height="195" transform="rotate(-13 153.503 -27.8677)" fill="url(#paint6_linear_503_21882)"  stroke-width="0.5"/>
<defs>
<linearGradient id="paint0_linear_503_21882" x1="10.6731" y1="-28.055" x2="10.6731" y2="82.0464" gradientUnits="userSpaceOnUse">
<stop stop-color="white"/>
<stop offset="1" stop-color="gray"/>
</linearGradient>
<linearGradient id="paint1_linear_503_21882" x1="36.1105" y1="-28.055" x2="36.1105" y2="82.0464" gradientUnits="userSpaceOnUse">
<stop stop-color="white"/>
<stop offset="1" stop-color="gray"/>
</linearGradient>
<linearGradient id="paint2_linear_503_21882" x1="61.5478" y1="-28.055" x2="61.5478" y2="82.0464" gradientUnits="userSpaceOnUse">
<stop stop-color="white"/>
<stop offset="1" stop-color="gray"/>
</linearGradient>
<linearGradient id="paint3_linear_503_21882" x1="86.9851" y1="-28.055" x2="86.9851" y2="82.0464" gradientUnits="userSpaceOnUse">
<stop stop-color="white"/>
<stop offset="1" stop-color="gray"/>
</linearGradient>
<linearGradient id="paint4_linear_503_21882" x1="112.423" y1="-28.055" x2="112.423" y2="82.0464" gradientUnits="userSpaceOnUse">
<stop stop-color="white"/>
<stop offset="1" stop-color="gray"/>
</linearGradient>
<linearGradient id="paint5_linear_503_21882" x1="137.86" y1="-28.055" x2="137.86" y2="82.0464" gradientUnits="userSpaceOnUse">
<stop stop-color="white"/>
<stop offset="1" stop-color="gray"/>
</linearGradient>
<linearGradient id="paint6_linear_503_21882" x1="163.297" y1="-28.055" x2="163.297" y2="82.0464" gradientUnits="userSpaceOnUse">
<stop stop-color="white"/>
<stop offset="1" stop-color="gray"/>
</linearGradient>
</defs>
</svg>