<svg width="77" height="59" viewBox="0 0 77 59" fill="none" xmlns="http://www.w3.org/2000/svg">
<g filter="url(#filter0_di_406_1772)">
<path d="M20.4691 15.9148C20.4691 15.8043 20.3796 15.7148 20.2691 15.7148H0.674099C0.505775 15.7148 0.412737 15.91 0.518763 16.0408L4.87582 21.4132C4.9138 21.46 4.97087 21.4872 5.03116 21.4872H20.2691C20.3796 21.4872 20.4691 21.3976 20.4691 21.2872V15.9148Z" fill="#C32F39"/>
<path d="M20.2191 21.2372V15.9648H0.779026L5.05499 21.2372H20.2191Z" stroke="url(#paint0_linear_406_1772)" stroke-opacity="0.61" stroke-width="0.5"/>
</g>
<g filter="url(#filter1_di_406_1772)">
<path d="M25.1555 21.6875C25.1555 21.577 25.066 21.4875 24.9555 21.4875H5.3605C5.19218 21.4875 5.09914 21.6827 5.20516 21.8135L9.56223 27.1859C9.6002 27.2327 9.65727 27.2599 9.71756 27.2599H24.9555C25.066 27.2599 25.1555 27.1703 25.1555 27.0599V21.6875Z" fill="#C32F39"/>
<path d="M24.9055 27.0099V21.7375H5.46543L9.74139 27.0099H24.9055Z" stroke="url(#paint1_linear_406_1772)" stroke-opacity="0.61" stroke-width="0.5"/>
</g>
<g filter="url(#filter2_di_406_1772)">
<path d="M29.8354 27.4597C29.8354 27.3492 29.7459 27.2597 29.6354 27.2597H10.0404C9.87211 27.2597 9.77907 27.4549 9.8851 27.5857L14.2422 32.9581C14.2801 33.0049 14.3372 33.0321 14.3975 33.0321H29.6354C29.7459 33.0321 29.8354 32.9425 29.8354 32.8321V27.4597Z" fill="#C32F39"/>
<path d="M29.5854 32.7821V27.5097H10.1454L14.4213 32.7821H29.5854Z" stroke="url(#paint2_linear_406_1772)" stroke-opacity="0.61" stroke-width="0.5"/>
</g>
<g filter="url(#filter3_di_406_1772)">
<path d="M56.3671 15.9148C56.3671 15.8043 56.4566 15.7148 56.5671 15.7148H76.1621C76.3304 15.7148 76.4234 15.91 76.3174 16.0408L71.9604 21.4132C71.9224 21.46 71.8653 21.4872 71.805 21.4872H56.5671C56.4566 21.4872 56.3671 21.3976 56.3671 21.2872V15.9148Z" fill="#C32F39"/>
<path d="M56.6171 21.2372V15.9648H76.0572L71.7812 21.2372H56.6171Z" stroke="url(#paint3_linear_406_1772)" stroke-opacity="0.61" stroke-width="0.5"/>
</g>
<g filter="url(#filter4_di_406_1772)">
<path d="M51.6809 21.6875C51.6809 21.577 51.7705 21.4875 51.8809 21.4875H71.4759C71.6442 21.4875 71.7373 21.6827 71.6313 21.8135L67.2742 27.1859C67.2362 27.2327 67.1792 27.2599 67.1189 27.2599H51.8809C51.7705 27.2599 51.6809 27.1703 51.6809 27.0599V21.6875Z" fill="#C32F39"/>
<path d="M51.9309 27.0099V21.7375H71.371L67.095 27.0099H51.9309Z" stroke="url(#paint4_linear_406_1772)" stroke-opacity="0.61" stroke-width="0.5"/>
</g>
<g filter="url(#filter5_di_406_1772)">
<path d="M47.001 27.4597C47.001 27.3492 47.0905 27.2597 47.201 27.2597H66.796C66.9643 27.2597 67.0574 27.4549 66.9513 27.5857L62.5943 32.9581C62.5563 33.0049 62.4992 33.0321 62.4389 33.0321H47.201C47.0905 33.0321 47.001 32.9425 47.001 32.8321V27.4597Z" fill="#C32F39"/>
<path d="M47.251 32.7821V27.5097H66.6911L62.4151 32.7821H47.251Z" stroke="url(#paint5_linear_406_1772)" stroke-opacity="0.61" stroke-width="0.5"/>
</g>
<g filter="url(#filter6_ddi_406_1772)">
<path d="M17.3257 14.5115C17.3257 11.1978 20.012 8.51154 23.3257 8.51154H53.5104C56.8241 8.51154 59.5104 11.1978 59.5104 14.5115V35.7995C59.5104 37.8981 58.4139 39.8441 56.6189 40.9314L38.645 51.8188C38.5766 51.8602 38.4981 51.8821 38.4181 51.8821C38.338 51.8821 38.2595 51.8602 38.1911 51.8188L20.2172 40.9314C18.4222 39.8441 17.3257 37.8981 17.3257 35.7995V14.5115Z" fill="#FF323B"/>
<path d="M17.3257 14.5115C17.3257 11.1978 20.012 8.51154 23.3257 8.51154H53.5104C56.8241 8.51154 59.5104 11.1978 59.5104 14.5115V35.7995C59.5104 37.8981 58.4139 39.8441 56.6189 40.9314L38.645 51.8188C38.5766 51.8602 38.4981 51.8821 38.4181 51.8821C38.338 51.8821 38.2595 51.8602 38.1911 51.8188L20.2172 40.9314C18.4222 39.8441 17.3257 37.8981 17.3257 35.7995V14.5115Z" fill="black" fill-opacity="0.2"/>
<path d="M17.3257 14.5115C17.3257 11.1978 20.012 8.51154 23.3257 8.51154H53.5104C56.8241 8.51154 59.5104 11.1978 59.5104 14.5115V35.7995C59.5104 37.8981 58.4139 39.8441 56.6189 40.9314L38.645 51.8188C38.5766 51.8602 38.4981 51.8821 38.4181 51.8821C38.338 51.8821 38.2595 51.8602 38.1911 51.8188L20.2172 40.9314C18.4222 39.8441 17.3257 37.8981 17.3257 35.7995V14.5115Z" fill="black" fill-opacity="0.2"/>
<path d="M17.8257 14.5115C17.8257 11.474 20.2882 9.01154 23.3257 9.01154H53.5104C56.5479 9.01154 59.0104 11.474 59.0104 14.5115V35.7995C59.0104 37.7232 58.0053 39.5071 56.3599 40.5037L38.4181 51.3717L20.4762 40.5037C18.8308 39.5071 17.8257 37.7232 17.8257 35.7995V14.5115Z" stroke="#FF6B75"/>
</g>
<g filter="url(#filter7_di_406_1772)">
<path d="M19.5831 14.8021C19.5831 12.593 21.374 10.8021 23.5831 10.8021H53.2533C55.4625 10.8021 57.2533 12.593 57.2533 14.8021V35.4517C57.2533 36.8615 56.5112 38.1672 55.2999 38.8885L38.6213 48.8203C38.5599 48.8569 38.4897 48.8762 38.4182 48.8762C38.3467 48.8762 38.2766 48.8569 38.2151 48.8203L21.5366 38.8885C20.3253 38.1672 19.5831 36.8615 19.5831 35.4517V14.8021Z" fill="url(#paint6_linear_406_1772)"/>
<path d="M20.0831 14.8021C20.0831 12.8691 21.6501 11.3021 23.5831 11.3021H53.2533C55.1863 11.3021 56.7533 12.8691 56.7533 14.8021V35.4517C56.7533 36.6852 56.104 37.8277 55.0441 38.4589L38.4182 48.3593L21.7924 38.4589C20.7325 37.8277 20.0831 36.6852 20.0831 35.4517V14.8021ZM38.3655 48.3907C38.3657 48.3906 38.3658 48.3905 38.3659 48.3904L38.3655 48.3907ZM38.4706 48.3904C38.4707 48.3905 38.4708 48.3906 38.4709 48.3907L38.4706 48.3904Z" stroke="url(#paint7_linear_406_1772)"/>
</g>
<path d="M38.4175 11.5211H53.477C55.1294 11.5211 56.4707 12.8573 56.477 14.5097L56.5572 35.5216C56.5613 36.5838 56.0034 37.5689 55.0904 38.1117L38.7032 47.8551C38.5778 47.924 38.4245 47.8334 38.4245 47.6903L38.4175 11.5211Z" fill="#FF323B"/>
<path d="M38.4175 11.5211H53.477C55.1294 11.5211 56.4707 12.8573 56.477 14.5097L56.5572 35.5216C56.5613 36.5838 56.0034 37.5689 55.0904 38.1117L38.7032 47.8551C38.5778 47.924 38.4245 47.8334 38.4245 47.6903L38.4175 11.5211Z" fill="black" fill-opacity="0.2"/>
<g filter="url(#filter8_f_406_1772)">
<mask id="path-18-outside-1_406_1772" maskUnits="userSpaceOnUse" x="27.2054" y="29.5558" width="22" height="3" fill="black">
<rect fill="white" x="27.2054" y="29.5558" width="22" height="3"/>
<path d="M28.9846 31.5204C28.7855 31.5204 28.6037 31.5122 28.4391 31.4957C28.2833 31.4783 28.2054 31.4582 28.2054 31.4353C28.2054 31.4207 28.214 31.4065 28.2314 31.3928C28.2487 31.3791 28.2876 31.3658 28.3482 31.353C28.4088 31.3402 28.4998 31.3279 28.621 31.316C29.0192 31.2812 29.4218 31.2492 29.8288 31.2199C30.2443 31.1906 30.6426 31.1627 31.0236 31.1362C31.4045 31.1097 31.7465 31.0831 32.0495 31.0566C32.3526 31.0292 32.5907 31.0008 32.7638 30.9715C32.937 30.9413 33.0236 30.9089 33.0236 30.8741C33.0236 30.8458 32.9673 30.8201 32.8547 30.7973C32.7508 30.7744 32.582 30.7561 32.3482 30.7424C32.1145 30.7287 31.8028 30.7218 31.4132 30.7218C31.1448 30.7218 30.9067 30.7259 30.6989 30.7341C30.4998 30.7424 30.3309 30.7543 30.1924 30.7698C30.0625 30.7854 29.9586 30.8046 29.8807 30.8275C29.8114 30.8494 29.7768 30.8746 29.7768 30.9029C29.7768 30.9185 29.7638 30.9322 29.7378 30.9441C29.7119 30.956 29.6426 30.9656 29.5301 30.9729C29.4262 30.9793 29.2443 30.9825 28.9846 30.9825C28.7249 30.9825 28.5387 30.9784 28.4262 30.9702C28.3223 30.9619 28.2573 30.951 28.2314 30.9372C28.214 30.9226 28.2054 30.9075 28.2054 30.8919C28.2054 30.8462 28.2746 30.8032 28.4132 30.763C28.5604 30.7218 28.7725 30.6861 29.0495 30.6559C29.3266 30.6248 29.6599 30.6006 30.0495 30.5832C30.4478 30.5649 30.898 30.5558 31.4002 30.5558C32.0322 30.5558 32.5863 30.5695 33.0625 30.5969C33.5474 30.6244 33.924 30.6628 34.1924 30.7122C34.4694 30.7616 34.608 30.8206 34.608 30.8892C34.608 30.9249 34.556 30.9583 34.4521 30.9894C34.3482 31.0205 34.2054 31.0498 34.0236 31.0772C33.8417 31.1037 33.6296 31.1284 33.3872 31.1513C33.1534 31.1742 32.898 31.1961 32.621 31.2172C32.3526 31.2373 32.0798 31.2565 31.8028 31.2748C31.5257 31.2922 31.2573 31.3091 30.9976 31.3256L30.5041 31.353H34.1924C34.3396 31.353 34.4738 31.3548 34.595 31.3585C34.7162 31.3612 34.8071 31.3686 34.8677 31.3805C34.937 31.3924 34.9716 31.4116 34.9716 31.4381C34.9716 31.4637 34.937 31.4825 34.8677 31.4944C34.7985 31.5062 34.7032 31.5136 34.582 31.5163C34.4608 31.5191 34.3223 31.5204 34.1664 31.5204H28.9846Z"/>
<path d="M41.1263 31.5259C40.8839 31.5259 40.7064 31.5223 40.5939 31.5149C40.49 31.5076 40.4207 31.4976 40.3861 31.4847C40.3601 31.4719 40.3471 31.4578 40.3471 31.4422V31.2336H36.5549C36.3125 31.2336 36.135 31.23 36.0224 31.2227C35.9099 31.2144 35.8363 31.2039 35.8017 31.1911C35.7757 31.1783 35.7627 31.1646 35.7627 31.1499C35.7627 31.1426 35.767 31.1367 35.7757 31.1321C35.7843 31.1266 35.793 31.1211 35.8017 31.1156L37.0874 30.6285C37.1653 30.5937 37.2735 30.5731 37.4121 30.5667C37.5506 30.5603 37.7627 30.5603 38.0484 30.5667C38.2735 30.5722 38.4424 30.5814 38.5549 30.5942C38.6761 30.6061 38.7151 30.6216 38.6718 30.6408L37.5159 31.0786H40.3471V30.6436C40.3471 30.6289 40.3601 30.6161 40.3861 30.6052C40.4207 30.5942 40.4943 30.585 40.6069 30.5777C40.7281 30.5704 40.9099 30.5667 41.1523 30.5667C41.3947 30.5667 41.5722 30.5708 41.6848 30.5791C41.7973 30.5864 41.8666 30.5965 41.8926 30.6093C41.9185 30.6212 41.9315 30.6349 41.9315 30.6504V31.445C41.9315 31.4596 41.9142 31.4733 41.8796 31.4861C41.8536 31.4989 41.7843 31.5085 41.6718 31.5149C41.5592 31.5223 41.3774 31.5259 41.1263 31.5259Z"/>
<path d="M45.6831 31.5369C45.3541 31.5369 45.0554 31.5337 44.787 31.5273C44.5273 31.5209 44.2935 31.5126 44.0857 31.5026C43.8866 31.4925 43.7178 31.4829 43.5793 31.4738C43.4407 31.4637 43.3282 31.455 43.2416 31.4477C43.1377 31.4385 43.0468 31.4299 42.9689 31.4216C42.8996 31.4125 42.865 31.402 42.865 31.3901C42.865 31.3809 42.8866 31.3718 42.9299 31.3626C42.9818 31.3526 43.0641 31.3411 43.1767 31.3283C43.2719 31.3155 43.3628 31.3064 43.4494 31.3009C43.5446 31.2954 43.6355 31.2926 43.7221 31.2926C43.8 31.2926 43.8823 31.2949 43.9689 31.2995C44.0641 31.3041 44.181 31.3123 44.3195 31.3242C44.3888 31.3306 44.471 31.3375 44.5663 31.3448C44.6702 31.3512 44.8044 31.3571 44.9689 31.3626C45.1334 31.3672 45.3455 31.3695 45.6052 31.3695C45.8996 31.3695 46.155 31.3635 46.3715 31.3516C46.5879 31.3397 46.7524 31.3228 46.865 31.3009C46.9862 31.2789 47.0468 31.2524 47.0468 31.2213C47.0468 31.192 46.9862 31.1664 46.865 31.1444C46.7437 31.1216 46.5749 31.1037 46.3585 31.0909C46.1507 31.0781 45.9126 31.0717 45.6442 31.0717C45.5143 31.0717 45.3888 31.0735 45.2676 31.0772C45.1463 31.0809 45.0381 31.0854 44.9429 31.0909C44.8563 31.0964 44.7827 31.1024 44.7221 31.1088C44.6528 31.1152 44.5836 31.1207 44.5143 31.1252C44.4537 31.1298 44.3715 31.1325 44.2676 31.1335C44.1723 31.1353 44.0728 31.1353 43.9689 31.1335C43.8736 31.1307 43.7524 31.1261 43.6052 31.1197C43.4148 31.1097 43.2762 31.1005 43.1896 31.0923C43.1031 31.0841 43.0598 31.0735 43.0598 31.0607L43.5922 30.6504C43.6096 30.6395 43.6355 30.6276 43.6702 30.6148C43.7134 30.601 43.787 30.5896 43.8909 30.5805C44.0035 30.5704 44.168 30.5658 44.3844 30.5667H47.6312C47.7697 30.5667 47.8953 30.5686 48.0078 30.5722C48.1204 30.575 48.2113 30.5823 48.2805 30.5942C48.3498 30.6061 48.3844 30.6253 48.3844 30.6518C48.3844 30.6765 48.3498 30.6943 48.2805 30.7053C48.2199 30.7163 48.1334 30.7232 48.0208 30.7259C47.9169 30.7287 47.7957 30.73 47.6572 30.73H45.0857L44.8 30.9359C44.8866 30.9295 44.9775 30.9244 45.0728 30.9208C45.168 30.9162 45.2632 30.913 45.3585 30.9112C45.4624 30.9084 45.5619 30.907 45.6572 30.907H45.7481C46.129 30.907 46.4927 30.9153 46.839 30.9317C47.1853 30.9473 47.4927 30.9693 47.7611 30.9976C48.0295 31.026 48.2416 31.0584 48.3974 31.095C48.5533 31.1316 48.6312 31.1705 48.6312 31.2117C48.6312 31.2739 48.5013 31.3297 48.2416 31.3791C47.9818 31.4276 47.6312 31.466 47.1896 31.4944C46.7481 31.5227 46.2459 31.5369 45.6831 31.5369Z"/>
</mask>
<path d="M28.9846 31.5204C28.7855 31.5204 28.6037 31.5122 28.4391 31.4957C28.2833 31.4783 28.2054 31.4582 28.2054 31.4353C28.2054 31.4207 28.214 31.4065 28.2314 31.3928C28.2487 31.3791 28.2876 31.3658 28.3482 31.353C28.4088 31.3402 28.4998 31.3279 28.621 31.316C29.0192 31.2812 29.4218 31.2492 29.8288 31.2199C30.2443 31.1906 30.6426 31.1627 31.0236 31.1362C31.4045 31.1097 31.7465 31.0831 32.0495 31.0566C32.3526 31.0292 32.5907 31.0008 32.7638 30.9715C32.937 30.9413 33.0236 30.9089 33.0236 30.8741C33.0236 30.8458 32.9673 30.8201 32.8547 30.7973C32.7508 30.7744 32.582 30.7561 32.3482 30.7424C32.1145 30.7287 31.8028 30.7218 31.4132 30.7218C31.1448 30.7218 30.9067 30.7259 30.6989 30.7341C30.4998 30.7424 30.3309 30.7543 30.1924 30.7698C30.0625 30.7854 29.9586 30.8046 29.8807 30.8275C29.8114 30.8494 29.7768 30.8746 29.7768 30.9029C29.7768 30.9185 29.7638 30.9322 29.7378 30.9441C29.7119 30.956 29.6426 30.9656 29.5301 30.9729C29.4262 30.9793 29.2443 30.9825 28.9846 30.9825C28.7249 30.9825 28.5387 30.9784 28.4262 30.9702C28.3223 30.9619 28.2573 30.951 28.2314 30.9372C28.214 30.9226 28.2054 30.9075 28.2054 30.8919C28.2054 30.8462 28.2746 30.8032 28.4132 30.763C28.5604 30.7218 28.7725 30.6861 29.0495 30.6559C29.3266 30.6248 29.6599 30.6006 30.0495 30.5832C30.4478 30.5649 30.898 30.5558 31.4002 30.5558C32.0322 30.5558 32.5863 30.5695 33.0625 30.5969C33.5474 30.6244 33.924 30.6628 34.1924 30.7122C34.4694 30.7616 34.608 30.8206 34.608 30.8892C34.608 30.9249 34.556 30.9583 34.4521 30.9894C34.3482 31.0205 34.2054 31.0498 34.0236 31.0772C33.8417 31.1037 33.6296 31.1284 33.3872 31.1513C33.1534 31.1742 32.898 31.1961 32.621 31.2172C32.3526 31.2373 32.0798 31.2565 31.8028 31.2748C31.5257 31.2922 31.2573 31.3091 30.9976 31.3256L30.5041 31.353H34.1924C34.3396 31.353 34.4738 31.3548 34.595 31.3585C34.7162 31.3612 34.8071 31.3686 34.8677 31.3805C34.937 31.3924 34.9716 31.4116 34.9716 31.4381C34.9716 31.4637 34.937 31.4825 34.8677 31.4944C34.7985 31.5062 34.7032 31.5136 34.582 31.5163C34.4608 31.5191 34.3223 31.5204 34.1664 31.5204H28.9846Z" fill="url(#paint8_linear_406_1772)"/>
<path d="M41.1263 31.5259C40.8839 31.5259 40.7064 31.5223 40.5939 31.5149C40.49 31.5076 40.4207 31.4976 40.3861 31.4847C40.3601 31.4719 40.3471 31.4578 40.3471 31.4422V31.2336H36.5549C36.3125 31.2336 36.135 31.23 36.0224 31.2227C35.9099 31.2144 35.8363 31.2039 35.8017 31.1911C35.7757 31.1783 35.7627 31.1646 35.7627 31.1499C35.7627 31.1426 35.767 31.1367 35.7757 31.1321C35.7843 31.1266 35.793 31.1211 35.8017 31.1156L37.0874 30.6285C37.1653 30.5937 37.2735 30.5731 37.4121 30.5667C37.5506 30.5603 37.7627 30.5603 38.0484 30.5667C38.2735 30.5722 38.4424 30.5814 38.5549 30.5942C38.6761 30.6061 38.7151 30.6216 38.6718 30.6408L37.5159 31.0786H40.3471V30.6436C40.3471 30.6289 40.3601 30.6161 40.3861 30.6052C40.4207 30.5942 40.4943 30.585 40.6069 30.5777C40.7281 30.5704 40.9099 30.5667 41.1523 30.5667C41.3947 30.5667 41.5722 30.5708 41.6848 30.5791C41.7973 30.5864 41.8666 30.5965 41.8926 30.6093C41.9185 30.6212 41.9315 30.6349 41.9315 30.6504V31.445C41.9315 31.4596 41.9142 31.4733 41.8796 31.4861C41.8536 31.4989 41.7843 31.5085 41.6718 31.5149C41.5592 31.5223 41.3774 31.5259 41.1263 31.5259Z" fill="url(#paint9_linear_406_1772)"/>
<path d="M45.6831 31.5369C45.3541 31.5369 45.0554 31.5337 44.787 31.5273C44.5273 31.5209 44.2935 31.5126 44.0857 31.5026C43.8866 31.4925 43.7178 31.4829 43.5793 31.4738C43.4407 31.4637 43.3282 31.455 43.2416 31.4477C43.1377 31.4385 43.0468 31.4299 42.9689 31.4216C42.8996 31.4125 42.865 31.402 42.865 31.3901C42.865 31.3809 42.8866 31.3718 42.9299 31.3626C42.9818 31.3526 43.0641 31.3411 43.1767 31.3283C43.2719 31.3155 43.3628 31.3064 43.4494 31.3009C43.5446 31.2954 43.6355 31.2926 43.7221 31.2926C43.8 31.2926 43.8823 31.2949 43.9689 31.2995C44.0641 31.3041 44.181 31.3123 44.3195 31.3242C44.3888 31.3306 44.471 31.3375 44.5663 31.3448C44.6702 31.3512 44.8044 31.3571 44.9689 31.3626C45.1334 31.3672 45.3455 31.3695 45.6052 31.3695C45.8996 31.3695 46.155 31.3635 46.3715 31.3516C46.5879 31.3397 46.7524 31.3228 46.865 31.3009C46.9862 31.2789 47.0468 31.2524 47.0468 31.2213C47.0468 31.192 46.9862 31.1664 46.865 31.1444C46.7437 31.1216 46.5749 31.1037 46.3585 31.0909C46.1507 31.0781 45.9126 31.0717 45.6442 31.0717C45.5143 31.0717 45.3888 31.0735 45.2676 31.0772C45.1463 31.0809 45.0381 31.0854 44.9429 31.0909C44.8563 31.0964 44.7827 31.1024 44.7221 31.1088C44.6528 31.1152 44.5836 31.1207 44.5143 31.1252C44.4537 31.1298 44.3715 31.1325 44.2676 31.1335C44.1723 31.1353 44.0728 31.1353 43.9689 31.1335C43.8736 31.1307 43.7524 31.1261 43.6052 31.1197C43.4148 31.1097 43.2762 31.1005 43.1896 31.0923C43.1031 31.0841 43.0598 31.0735 43.0598 31.0607L43.5922 30.6504C43.6096 30.6395 43.6355 30.6276 43.6702 30.6148C43.7134 30.601 43.787 30.5896 43.8909 30.5805C44.0035 30.5704 44.168 30.5658 44.3844 30.5667H47.6312C47.7697 30.5667 47.8953 30.5686 48.0078 30.5722C48.1204 30.575 48.2113 30.5823 48.2805 30.5942C48.3498 30.6061 48.3844 30.6253 48.3844 30.6518C48.3844 30.6765 48.3498 30.6943 48.2805 30.7053C48.2199 30.7163 48.1334 30.7232 48.0208 30.7259C47.9169 30.7287 47.7957 30.73 47.6572 30.73H45.0857L44.8 30.9359C44.8866 30.9295 44.9775 30.9244 45.0728 30.9208C45.168 30.9162 45.2632 30.913 45.3585 30.9112C45.4624 30.9084 45.5619 30.907 45.6572 30.907H45.7481C46.129 30.907 46.4927 30.9153 46.839 30.9317C47.1853 30.9473 47.4927 30.9693 47.7611 30.9976C48.0295 31.026 48.2416 31.0584 48.3974 31.095C48.5533 31.1316 48.6312 31.1705 48.6312 31.2117C48.6312 31.2739 48.5013 31.3297 48.2416 31.3791C47.9818 31.4276 47.6312 31.466 47.1896 31.4944C46.7481 31.5227 46.2459 31.5369 45.6831 31.5369Z" fill="url(#paint10_linear_406_1772)"/>
<path d="M28.9846 31.5204C28.7855 31.5204 28.6037 31.5122 28.4391 31.4957C28.2833 31.4783 28.2054 31.4582 28.2054 31.4353C28.2054 31.4207 28.214 31.4065 28.2314 31.3928C28.2487 31.3791 28.2876 31.3658 28.3482 31.353C28.4088 31.3402 28.4998 31.3279 28.621 31.316C29.0192 31.2812 29.4218 31.2492 29.8288 31.2199C30.2443 31.1906 30.6426 31.1627 31.0236 31.1362C31.4045 31.1097 31.7465 31.0831 32.0495 31.0566C32.3526 31.0292 32.5907 31.0008 32.7638 30.9715C32.937 30.9413 33.0236 30.9089 33.0236 30.8741C33.0236 30.8458 32.9673 30.8201 32.8547 30.7973C32.7508 30.7744 32.582 30.7561 32.3482 30.7424C32.1145 30.7287 31.8028 30.7218 31.4132 30.7218C31.1448 30.7218 30.9067 30.7259 30.6989 30.7341C30.4998 30.7424 30.3309 30.7543 30.1924 30.7698C30.0625 30.7854 29.9586 30.8046 29.8807 30.8275C29.8114 30.8494 29.7768 30.8746 29.7768 30.9029C29.7768 30.9185 29.7638 30.9322 29.7378 30.9441C29.7119 30.956 29.6426 30.9656 29.5301 30.9729C29.4262 30.9793 29.2443 30.9825 28.9846 30.9825C28.7249 30.9825 28.5387 30.9784 28.4262 30.9702C28.3223 30.9619 28.2573 30.951 28.2314 30.9372C28.214 30.9226 28.2054 30.9075 28.2054 30.8919C28.2054 30.8462 28.2746 30.8032 28.4132 30.763C28.5604 30.7218 28.7725 30.6861 29.0495 30.6559C29.3266 30.6248 29.6599 30.6006 30.0495 30.5832C30.4478 30.5649 30.898 30.5558 31.4002 30.5558C32.0322 30.5558 32.5863 30.5695 33.0625 30.5969C33.5474 30.6244 33.924 30.6628 34.1924 30.7122C34.4694 30.7616 34.608 30.8206 34.608 30.8892C34.608 30.9249 34.556 30.9583 34.4521 30.9894C34.3482 31.0205 34.2054 31.0498 34.0236 31.0772C33.8417 31.1037 33.6296 31.1284 33.3872 31.1513C33.1534 31.1742 32.898 31.1961 32.621 31.2172C32.3526 31.2373 32.0798 31.2565 31.8028 31.2748C31.5257 31.2922 31.2573 31.3091 30.9976 31.3256L30.5041 31.353H34.1924C34.3396 31.353 34.4738 31.3548 34.595 31.3585C34.7162 31.3612 34.8071 31.3686 34.8677 31.3805C34.937 31.3924 34.9716 31.4116 34.9716 31.4381C34.9716 31.4637 34.937 31.4825 34.8677 31.4944C34.7985 31.5062 34.7032 31.5136 34.582 31.5163C34.4608 31.5191 34.3223 31.5204 34.1664 31.5204H28.9846Z" stroke="url(#paint11_linear_406_1772)" stroke-width="0.4" mask="url(#path-18-outside-1_406_1772)"/>
<path d="M41.1263 31.5259C40.8839 31.5259 40.7064 31.5223 40.5939 31.5149C40.49 31.5076 40.4207 31.4976 40.3861 31.4847C40.3601 31.4719 40.3471 31.4578 40.3471 31.4422V31.2336H36.5549C36.3125 31.2336 36.135 31.23 36.0224 31.2227C35.9099 31.2144 35.8363 31.2039 35.8017 31.1911C35.7757 31.1783 35.7627 31.1646 35.7627 31.1499C35.7627 31.1426 35.767 31.1367 35.7757 31.1321C35.7843 31.1266 35.793 31.1211 35.8017 31.1156L37.0874 30.6285C37.1653 30.5937 37.2735 30.5731 37.4121 30.5667C37.5506 30.5603 37.7627 30.5603 38.0484 30.5667C38.2735 30.5722 38.4424 30.5814 38.5549 30.5942C38.6761 30.6061 38.7151 30.6216 38.6718 30.6408L37.5159 31.0786H40.3471V30.6436C40.3471 30.6289 40.3601 30.6161 40.3861 30.6052C40.4207 30.5942 40.4943 30.585 40.6069 30.5777C40.7281 30.5704 40.9099 30.5667 41.1523 30.5667C41.3947 30.5667 41.5722 30.5708 41.6848 30.5791C41.7973 30.5864 41.8666 30.5965 41.8926 30.6093C41.9185 30.6212 41.9315 30.6349 41.9315 30.6504V31.445C41.9315 31.4596 41.9142 31.4733 41.8796 31.4861C41.8536 31.4989 41.7843 31.5085 41.6718 31.5149C41.5592 31.5223 41.3774 31.5259 41.1263 31.5259Z" stroke="url(#paint12_linear_406_1772)" stroke-width="0.4" mask="url(#path-18-outside-1_406_1772)"/>
<path d="M45.6831 31.5369C45.3541 31.5369 45.0554 31.5337 44.787 31.5273C44.5273 31.5209 44.2935 31.5126 44.0857 31.5026C43.8866 31.4925 43.7178 31.4829 43.5793 31.4738C43.4407 31.4637 43.3282 31.455 43.2416 31.4477C43.1377 31.4385 43.0468 31.4299 42.9689 31.4216C42.8996 31.4125 42.865 31.402 42.865 31.3901C42.865 31.3809 42.8866 31.3718 42.9299 31.3626C42.9818 31.3526 43.0641 31.3411 43.1767 31.3283C43.2719 31.3155 43.3628 31.3064 43.4494 31.3009C43.5446 31.2954 43.6355 31.2926 43.7221 31.2926C43.8 31.2926 43.8823 31.2949 43.9689 31.2995C44.0641 31.3041 44.181 31.3123 44.3195 31.3242C44.3888 31.3306 44.471 31.3375 44.5663 31.3448C44.6702 31.3512 44.8044 31.3571 44.9689 31.3626C45.1334 31.3672 45.3455 31.3695 45.6052 31.3695C45.8996 31.3695 46.155 31.3635 46.3715 31.3516C46.5879 31.3397 46.7524 31.3228 46.865 31.3009C46.9862 31.2789 47.0468 31.2524 47.0468 31.2213C47.0468 31.192 46.9862 31.1664 46.865 31.1444C46.7437 31.1216 46.5749 31.1037 46.3585 31.0909C46.1507 31.0781 45.9126 31.0717 45.6442 31.0717C45.5143 31.0717 45.3888 31.0735 45.2676 31.0772C45.1463 31.0809 45.0381 31.0854 44.9429 31.0909C44.8563 31.0964 44.7827 31.1024 44.7221 31.1088C44.6528 31.1152 44.5836 31.1207 44.5143 31.1252C44.4537 31.1298 44.3715 31.1325 44.2676 31.1335C44.1723 31.1353 44.0728 31.1353 43.9689 31.1335C43.8736 31.1307 43.7524 31.1261 43.6052 31.1197C43.4148 31.1097 43.2762 31.1005 43.1896 31.0923C43.1031 31.0841 43.0598 31.0735 43.0598 31.0607L43.5922 30.6504C43.6096 30.6395 43.6355 30.6276 43.6702 30.6148C43.7134 30.601 43.787 30.5896 43.8909 30.5805C44.0035 30.5704 44.168 30.5658 44.3844 30.5667H47.6312C47.7697 30.5667 47.8953 30.5686 48.0078 30.5722C48.1204 30.575 48.2113 30.5823 48.2805 30.5942C48.3498 30.6061 48.3844 30.6253 48.3844 30.6518C48.3844 30.6765 48.3498 30.6943 48.2805 30.7053C48.2199 30.7163 48.1334 30.7232 48.0208 30.7259C47.9169 30.7287 47.7957 30.73 47.6572 30.73H45.0857L44.8 30.9359C44.8866 30.9295 44.9775 30.9244 45.0728 30.9208C45.168 30.9162 45.2632 30.913 45.3585 30.9112C45.4624 30.9084 45.5619 30.907 45.6572 30.907H45.7481C46.129 30.907 46.4927 30.9153 46.839 30.9317C47.1853 30.9473 47.4927 30.9693 47.7611 30.9976C48.0295 31.026 48.2416 31.0584 48.3974 31.095C48.5533 31.1316 48.6312 31.1705 48.6312 31.2117C48.6312 31.2739 48.5013 31.3297 48.2416 31.3791C47.9818 31.4276 47.6312 31.466 47.1896 31.4944C46.7481 31.5227 46.2459 31.5369 45.6831 31.5369Z" stroke="url(#paint13_linear_406_1772)" stroke-width="0.4" mask="url(#path-18-outside-1_406_1772)"/>
</g>
<g filter="url(#filter9_f_406_1772)">
<rect x="22.0098" y="12.4918" width="32.8171" height="6.4473" fill="url(#paint14_linear_406_1772)"/>
</g>
<defs>
<filter id="filter0_di_406_1772" x="0.473694" y="15.7148" width="19.9954" height="9.7724" filterUnits="userSpaceOnUse" color-interpolation-filters="sRGB">
<feFlood flood-opacity="0" result="BackgroundImageFix"/>
<feColorMatrix in="SourceAlpha" type="matrix" values="0 0 0 0 0 0 0 0 0 0 0 0 0 0 0 0 0 0 127 0" result="hardAlpha"/>
<feOffset/>
<feComposite in2="hardAlpha" operator="out"/>
<feColorMatrix type="matrix" values="0 0 0 0 0.929412 0 0 0 0 0.203922 0 0 0 0 0.25098 0 0 0 1 0"/>
<feBlend mode="normal" in2="BackgroundImageFix" result="effect1_dropShadow_406_1772"/>
<feBlend mode="normal" in="SourceGraphic" in2="effect1_dropShadow_406_1772" result="shape"/>
<feColorMatrix in="SourceAlpha" type="matrix" values="0 0 0 0 0 0 0 0 0 0 0 0 0 0 0 0 0 0 127 0" result="hardAlpha"/>
<feOffset dy="4"/>
<feGaussianBlur stdDeviation="4.85"/>
<feComposite in2="hardAlpha" operator="arithmetic" k2="-1" k3="1"/>
<feColorMatrix type="matrix" values="0 0 0 0 1 0 0 0 0 0.2375 0 0 0 0 0.28696 0 0 0 1 0"/>
<feBlend mode="normal" in2="shape" result="effect2_innerShadow_406_1772"/>
</filter>
<filter id="filter1_di_406_1772" x="5.1601" y="21.4875" width="19.9954" height="9.7724" filterUnits="userSpaceOnUse" color-interpolation-filters="sRGB">
<feFlood flood-opacity="0" result="BackgroundImageFix"/>
<feColorMatrix in="SourceAlpha" type="matrix" values="0 0 0 0 0 0 0 0 0 0 0 0 0 0 0 0 0 0 127 0" result="hardAlpha"/>
<feOffset/>
<feComposite in2="hardAlpha" operator="out"/>
<feColorMatrix type="matrix" values="0 0 0 0 0.929412 0 0 0 0 0.203922 0 0 0 0 0.25098 0 0 0 1 0"/>
<feBlend mode="normal" in2="BackgroundImageFix" result="effect1_dropShadow_406_1772"/>
<feBlend mode="normal" in="SourceGraphic" in2="effect1_dropShadow_406_1772" result="shape"/>
<feColorMatrix in="SourceAlpha" type="matrix" values="0 0 0 0 0 0 0 0 0 0 0 0 0 0 0 0 0 0 127 0" result="hardAlpha"/>
<feOffset dy="4"/>
<feGaussianBlur stdDeviation="4.85"/>
<feComposite in2="hardAlpha" operator="arithmetic" k2="-1" k3="1"/>
<feColorMatrix type="matrix" values="0 0 0 0 1 0 0 0 0 0.341667 0 0 0 0 0.384369 0 0 0 1 0"/>
<feBlend mode="normal" in2="shape" result="effect2_innerShadow_406_1772"/>
</filter>
<filter id="filter2_di_406_1772" x="9.84003" y="27.2597" width="19.9954" height="9.7724" filterUnits="userSpaceOnUse" color-interpolation-filters="sRGB">
<feFlood flood-opacity="0" result="BackgroundImageFix"/>
<feColorMatrix in="SourceAlpha" type="matrix" values="0 0 0 0 0 0 0 0 0 0 0 0 0 0 0 0 0 0 127 0" result="hardAlpha"/>
<feOffset/>
<feComposite in2="hardAlpha" operator="out"/>
<feColorMatrix type="matrix" values="0 0 0 0 0.929412 0 0 0 0 0.203922 0 0 0 0 0.25098 0 0 0 1 0"/>
<feBlend mode="normal" in2="BackgroundImageFix" result="effect1_dropShadow_406_1772"/>
<feBlend mode="normal" in="SourceGraphic" in2="effect1_dropShadow_406_1772" result="shape"/>
<feColorMatrix in="SourceAlpha" type="matrix" values="0 0 0 0 0 0 0 0 0 0 0 0 0 0 0 0 0 0 127 0" result="hardAlpha"/>
<feOffset dy="4"/>
<feGaussianBlur stdDeviation="4.85"/>
<feComposite in2="hardAlpha" operator="arithmetic" k2="-1" k3="1"/>
<feColorMatrix type="matrix" values="0 0 0 0 1 0 0 0 0 0.341667 0 0 0 0 0.384369 0 0 0 1 0"/>
<feBlend mode="normal" in2="shape" result="effect2_innerShadow_406_1772"/>
</filter>
<filter id="filter3_di_406_1772" x="56.3671" y="15.7148" width="19.9954" height="9.7724" filterUnits="userSpaceOnUse" color-interpolation-filters="sRGB">
<feFlood flood-opacity="0" result="BackgroundImageFix"/>
<feColorMatrix in="SourceAlpha" type="matrix" values="0 0 0 0 0 0 0 0 0 0 0 0 0 0 0 0 0 0 127 0" result="hardAlpha"/>
<feOffset/>
<feComposite in2="hardAlpha" operator="out"/>
<feColorMatrix type="matrix" values="0 0 0 0 0.929412 0 0 0 0 0.203922 0 0 0 0 0.25098 0 0 0 1 0"/>
<feBlend mode="normal" in2="BackgroundImageFix" result="effect1_dropShadow_406_1772"/>
<feBlend mode="normal" in="SourceGraphic" in2="effect1_dropShadow_406_1772" result="shape"/>
<feColorMatrix in="SourceAlpha" type="matrix" values="0 0 0 0 0 0 0 0 0 0 0 0 0 0 0 0 0 0 127 0" result="hardAlpha"/>
<feOffset dy="4"/>
<feGaussianBlur stdDeviation="4.85"/>
<feComposite in2="hardAlpha" operator="arithmetic" k2="-1" k3="1"/>
<feColorMatrix type="matrix" values="0 0 0 0 1 0 0 0 0 0.2375 0 0 0 0 0.28696 0 0 0 1 0"/>
<feBlend mode="normal" in2="shape" result="effect2_innerShadow_406_1772"/>
</filter>
<filter id="filter4_di_406_1772" x="51.6809" y="21.4875" width="19.9954" height="9.7724" filterUnits="userSpaceOnUse" color-interpolation-filters="sRGB">
<feFlood flood-opacity="0" result="BackgroundImageFix"/>
<feColorMatrix in="SourceAlpha" type="matrix" values="0 0 0 0 0 0 0 0 0 0 0 0 0 0 0 0 0 0 127 0" result="hardAlpha"/>
<feOffset/>
<feComposite in2="hardAlpha" operator="out"/>
<feColorMatrix type="matrix" values="0 0 0 0 0.929412 0 0 0 0 0.203922 0 0 0 0 0.25098 0 0 0 1 0"/>
<feBlend mode="normal" in2="BackgroundImageFix" result="effect1_dropShadow_406_1772"/>
<feBlend mode="normal" in="SourceGraphic" in2="effect1_dropShadow_406_1772" result="shape"/>
<feColorMatrix in="SourceAlpha" type="matrix" values="0 0 0 0 0 0 0 0 0 0 0 0 0 0 0 0 0 0 127 0" result="hardAlpha"/>
<feOffset dy="4"/>
<feGaussianBlur stdDeviation="4.85"/>
<feComposite in2="hardAlpha" operator="arithmetic" k2="-1" k3="1"/>
<feColorMatrix type="matrix" values="0 0 0 0 1 0 0 0 0 0.341667 0 0 0 0 0.384369 0 0 0 1 0"/>
<feBlend mode="normal" in2="shape" result="effect2_innerShadow_406_1772"/>
</filter>
<filter id="filter5_di_406_1772" x="47.001" y="27.2597" width="19.9954" height="9.7724" filterUnits="userSpaceOnUse" color-interpolation-filters="sRGB">
<feFlood flood-opacity="0" result="BackgroundImageFix"/>
<feColorMatrix in="SourceAlpha" type="matrix" values="0 0 0 0 0 0 0 0 0 0 0 0 0 0 0 0 0 0 127 0" result="hardAlpha"/>
<feOffset/>
<feComposite in2="hardAlpha" operator="out"/>
<feColorMatrix type="matrix" values="0 0 0 0 0.929412 0 0 0 0 0.203922 0 0 0 0 0.25098 0 0 0 1 0"/>
<feBlend mode="normal" in2="BackgroundImageFix" result="effect1_dropShadow_406_1772"/>
<feBlend mode="normal" in="SourceGraphic" in2="effect1_dropShadow_406_1772" result="shape"/>
<feColorMatrix in="SourceAlpha" type="matrix" values="0 0 0 0 0 0 0 0 0 0 0 0 0 0 0 0 0 0 127 0" result="hardAlpha"/>
<feOffset dy="4"/>
<feGaussianBlur stdDeviation="4.85"/>
<feComposite in2="hardAlpha" operator="arithmetic" k2="-1" k3="1"/>
<feColorMatrix type="matrix" values="0 0 0 0 1 0 0 0 0 0.341667 0 0 0 0 0.384369 0 0 0 1 0"/>
<feBlend mode="normal" in2="shape" result="effect2_innerShadow_406_1772"/>
</filter>
<filter id="filter6_ddi_406_1772" x="11.1257" y="2.31154" width="54.5846" height="55.7706" filterUnits="userSpaceOnUse" color-interpolation-filters="sRGB">
<feFlood flood-opacity="0" result="BackgroundImageFix"/>
<feColorMatrix in="SourceAlpha" type="matrix" values="0 0 0 0 0 0 0 0 0 0 0 0 0 0 0 0 0 0 127 0" result="hardAlpha"/>
<feOffset/>
<feComposite in2="hardAlpha" operator="out"/>
<feColorMatrix type="matrix" values="0 0 0 0 0.929412 0 0 0 0 0.203922 0 0 0 0 0.25098 0 0 0 1 0"/>
<feBlend mode="normal" in2="BackgroundImageFix" result="effect1_dropShadow_406_1772"/>
<feColorMatrix in="SourceAlpha" type="matrix" values="0 0 0 0 0 0 0 0 0 0 0 0 0 0 0 0 0 0 127 0" result="hardAlpha"/>
<feOffset/>
<feGaussianBlur stdDeviation="3.1"/>
<feComposite in2="hardAlpha" operator="out"/>
<feColorMatrix type="matrix" values="0 0 0 0 0 0 0 0 0 0 0 0 0 0 0 0 0 0 0.25 0"/>
<feBlend mode="normal" in2="effect1_dropShadow_406_1772" result="effect2_dropShadow_406_1772"/>
<feBlend mode="normal" in="SourceGraphic" in2="effect2_dropShadow_406_1772" result="shape"/>
<feColorMatrix in="SourceAlpha" type="matrix" values="0 0 0 0 0 0 0 0 0 0 0 0 0 0 0 0 0 0 127 0" result="hardAlpha"/>
<feOffset dy="4"/>
<feGaussianBlur stdDeviation="4.85"/>
<feComposite in2="hardAlpha" operator="arithmetic" k2="-1" k3="1"/>
<feColorMatrix type="matrix" values="0 0 0 0 1 0 0 0 0 0.341667 0 0 0 0 0.384369 0 0 0 1 0"/>
<feBlend mode="normal" in2="shape" result="effect3_innerShadow_406_1772"/>
</filter>
<filter id="filter7_di_406_1772" x="19.5831" y="10.8021" width="37.6702" height="42.074" filterUnits="userSpaceOnUse" color-interpolation-filters="sRGB">
<feFlood flood-opacity="0" result="BackgroundImageFix"/>
<feColorMatrix in="SourceAlpha" type="matrix" values="0 0 0 0 0 0 0 0 0 0 0 0 0 0 0 0 0 0 127 0" result="hardAlpha"/>
<feOffset/>
<feComposite in2="hardAlpha" operator="out"/>
<feColorMatrix type="matrix" values="0 0 0 0 0.929412 0 0 0 0 0.203922 0 0 0 0 0.25098 0 0 0 1 0"/>
<feBlend mode="normal" in2="BackgroundImageFix" result="effect1_dropShadow_406_1772"/>
<feBlend mode="normal" in="SourceGraphic" in2="effect1_dropShadow_406_1772" result="shape"/>
<feColorMatrix in="SourceAlpha" type="matrix" values="0 0 0 0 0 0 0 0 0 0 0 0 0 0 0 0 0 0 127 0" result="hardAlpha"/>
<feOffset dy="4"/>
<feGaussianBlur stdDeviation="4.85"/>
<feComposite in2="hardAlpha" operator="arithmetic" k2="-1" k3="1"/>
<feColorMatrix type="matrix" values="0 0 0 0 1 0 0 0 0 0.341667 0 0 0 0 0.384369 0 0 0 1 0"/>
<feBlend mode="normal" in2="shape" result="effect2_innerShadow_406_1772"/>
</filter>
<filter id="filter8_f_406_1772" x="21.4054" y="23.7557" width="34.0258" height="14.5811" filterUnits="userSpaceOnUse" color-interpolation-filters="sRGB">
<feFlood flood-opacity="0" result="BackgroundImageFix"/>
<feBlend mode="normal" in="SourceGraphic" in2="BackgroundImageFix" result="shape"/>
<feGaussianBlur stdDeviation="3.3" result="effect1_foregroundBlur_406_1772"/>
</filter>
<filter id="filter9_f_406_1772" x="10.1098" y="0.591761" width="56.6171" height="30.2473" filterUnits="userSpaceOnUse" color-interpolation-filters="sRGB">
<feFlood flood-opacity="0" result="BackgroundImageFix"/>
<feBlend mode="normal" in="SourceGraphic" in2="BackgroundImageFix" result="shape"/>
<feGaussianBlur stdDeviation="5.95" result="effect1_foregroundBlur_406_1772"/>
</filter>
<linearGradient id="paint0_linear_406_1772" x1="10.3618" y1="15.7148" x2="10.3618" y2="21.4872" gradientUnits="userSpaceOnUse">
<stop stop-color="#FF8C94"/>
<stop offset="1" stop-color="#ED3440"/>
</linearGradient>
<linearGradient id="paint1_linear_406_1772" x1="15.0482" y1="21.4875" x2="15.0482" y2="27.2599" gradientUnits="userSpaceOnUse">
<stop stop-color="#FF8C94"/>
<stop offset="1" stop-color="#ED3440"/>
</linearGradient>
<linearGradient id="paint2_linear_406_1772" x1="19.7281" y1="27.2597" x2="19.7281" y2="33.0321" gradientUnits="userSpaceOnUse">
<stop stop-color="#FF8C94"/>
<stop offset="1" stop-color="#ED3440"/>
</linearGradient>
<linearGradient id="paint3_linear_406_1772" x1="66.4744" y1="15.7148" x2="66.4744" y2="21.4872" gradientUnits="userSpaceOnUse">
<stop stop-color="#FF8C94"/>
<stop offset="1" stop-color="#ED3440"/>
</linearGradient>
<linearGradient id="paint4_linear_406_1772" x1="61.7883" y1="21.4875" x2="61.7883" y2="27.2599" gradientUnits="userSpaceOnUse">
<stop stop-color="#FF8C94"/>
<stop offset="1" stop-color="#ED3440"/>
</linearGradient>
<linearGradient id="paint5_linear_406_1772" x1="57.1083" y1="27.2597" x2="57.1083" y2="33.0321" gradientUnits="userSpaceOnUse">
<stop stop-color="#FF8C94"/>
<stop offset="1" stop-color="#ED3440"/>
</linearGradient>
<linearGradient id="paint6_linear_406_1772" x1="38.4182" y1="10.8021" x2="38.4182" y2="48.8762" gradientUnits="userSpaceOnUse">
<stop stop-color="#FF323B"/>
<stop offset="1" stop-color="#EC1B24"/>
</linearGradient>
<linearGradient id="paint7_linear_406_1772" x1="19.5831" y1="29.8391" x2="57.2533" y2="29.8391" gradientUnits="userSpaceOnUse">
<stop stop-color="#FF6B75"/>
<stop offset="1" stop-color="#ED3440"/>
</linearGradient>
<linearGradient id="paint8_linear_406_1772" x1="38.4216" y1="30.1418" x2="38.4216" y2="31.9728" gradientUnits="userSpaceOnUse">
<stop stop-color="#D7D7D7"/>
<stop offset="1" stop-color="#E8E8E8"/>
</linearGradient>
<linearGradient id="paint9_linear_406_1772" x1="38.4216" y1="30.1418" x2="38.4216" y2="31.9728" gradientUnits="userSpaceOnUse">
<stop stop-color="#D7D7D7"/>
<stop offset="1" stop-color="#E8E8E8"/>
</linearGradient>
<linearGradient id="paint10_linear_406_1772" x1="38.4216" y1="30.1418" x2="38.4216" y2="31.9728" gradientUnits="userSpaceOnUse">
<stop stop-color="#D7D7D7"/>
<stop offset="1" stop-color="#E8E8E8"/>
</linearGradient>
<linearGradient id="paint11_linear_406_1772" x1="38.4183" y1="30.5558" x2="38.4183" y2="31.5369" gradientUnits="userSpaceOnUse">
<stop stop-color="white"/>
<stop offset="1" stop-color="#E3E3E3"/>
</linearGradient>
<linearGradient id="paint12_linear_406_1772" x1="38.4183" y1="30.5558" x2="38.4183" y2="31.5369" gradientUnits="userSpaceOnUse">
<stop stop-color="white"/>
<stop offset="1" stop-color="#E3E3E3"/>
</linearGradient>
<linearGradient id="paint13_linear_406_1772" x1="38.4183" y1="30.5558" x2="38.4183" y2="31.5369" gradientUnits="userSpaceOnUse">
<stop stop-color="white"/>
<stop offset="1" stop-color="#E3E3E3"/>
</linearGradient>
<linearGradient id="paint14_linear_406_1772" x1="38.4184" y1="12.4918" x2="38.4184" y2="18.9391" gradientUnits="userSpaceOnUse">
<stop stop-color="#FF848C"/>
<stop offset="1" stop-color="#FF848C" stop-opacity="0"/>
</linearGradient>
</defs>
</svg>
