<svg width="14" height="16" viewBox="0 0 14 16" fill="none" xmlns="http://www.w3.org/2000/svg">
<path d="M8.12358 3.91786C8.70758 4.04075 9.24429 4.34878 9.66503 4.80254C10.0858 5.2563 10.3714 5.83514 10.4853 6.46498M8.12358 1.3385C9.3369 1.48387 10.4683 2.06986 11.3321 3.00026C12.1959 3.93066 12.7406 5.15016 12.877 6.45853M5.83777 8.98829C5.11934 8.21346 4.55205 7.33736 4.1359 6.40258C4.10011 6.32218 4.08221 6.28197 4.06846 6.2311C4.0196 6.05032 4.0547 5.82833 4.15635 5.67522C4.18495 5.63214 4.21913 5.59528 4.28748 5.52157C4.49651 5.29613 4.60102 5.18341 4.66936 5.07006C4.92705 4.6426 4.92705 4.09153 4.66936 3.66407C4.60102 3.55073 4.49651 3.43801 4.28748 3.21257L4.17096 3.08691C3.85321 2.74421 3.69433 2.57286 3.5237 2.47978C3.18435 2.29467 2.78359 2.29467 2.44424 2.47978C2.27361 2.57286 2.11473 2.74421 1.79698 3.08691L1.70273 3.18855C1.38606 3.53008 1.22773 3.70084 1.10681 3.933C0.972623 4.19062 0.876143 4.59074 0.876958 4.88622C0.877693 5.1525 0.925588 5.33449 1.02138 5.69847C1.53616 7.65453 2.50744 9.50029 3.93524 11.0402C5.36303 12.58 7.07446 13.6276 8.88815 14.1827C9.22564 14.286 9.39438 14.3377 9.64129 14.3385C9.91526 14.3394 10.2863 14.2353 10.5251 14.0906C10.7404 13.9602 10.8987 13.7894 11.2154 13.4479L11.3096 13.3463C11.6274 13.0036 11.7863 12.8322 11.8726 12.6482C12.0442 12.2822 12.0442 11.85 11.8726 11.484C11.7863 11.3 11.6274 11.1286 11.3096 10.7859L11.1931 10.6603C10.9841 10.4348 10.8796 10.3221 10.7745 10.2484C10.3781 9.97049 9.86717 9.97049 9.47082 10.2484C9.36572 10.3221 9.26121 10.4348 9.05218 10.6603C8.98383 10.734 8.94965 10.7708 8.90971 10.8017C8.76774 10.9113 8.56191 10.9492 8.39428 10.8965C8.34711 10.8816 8.30984 10.8623 8.23528 10.8237C7.36855 10.3749 6.5562 9.76311 5.83777 8.98829Z" stroke="#686868" stroke-width="1.5" stroke-linecap="round" stroke-linejoin="round"/>
</svg>
