<svg width="21" height="19" viewBox="0 0 21 19" fill="none" xmlns="http://www.w3.org/2000/svg">
    <path
        d="M20.3895 15.6491C20.0861 15.3457 19.6849 15.1793 19.2575 15.1663L16.2042 12.113L17.1926 11.1278L17.3818 11.317C17.509 11.4442 17.7178 11.4442 17.845 11.317C18.4094 10.7526 18.4094 9.83275 17.845 9.26839C17.571 8.99438 17.2089 8.84432 16.8207 8.84432C16.4325 8.84432 16.0704 8.99438 15.7964 9.26839C15.7344 9.33037 15.7018 9.41192 15.7018 9.5C15.7018 9.58482 15.7344 9.66964 15.7964 9.72836L15.9856 9.92081L15.4441 10.4591L13.0334 8.04836L18.3637 2.7148C18.4224 2.65282 18.4583 2.57126 18.4583 2.48644L18.4812 0.330186C18.4812 0.242103 18.4485 0.157284 18.3866 0.0953039C18.3246 0.0333236 18.243 -0.00582186 18.1517 0.000708903L15.9987 0.0268124C15.9139 0.0268124 15.8323 0.0626924 15.7703 0.121407L10.44 5.45497L5.10318 0.121411C5.04447 0.0594303 4.96292 0.0268156 4.8781 0.0268156L2.7251 0.000712169C2.62724 -0.0058186 2.5522 0.0365923 2.49022 0.0985726C2.42824 0.160553 2.39236 0.245371 2.39563 0.333435L2.41846 2.48645C2.41846 2.57127 2.45434 2.65282 2.51306 2.71153L7.84988 8.04836L5.43266 10.4623L4.89116 9.92081L5.08035 9.72836C5.14233 9.66964 5.17496 9.58483 5.17496 9.50001C5.17496 9.41192 5.14233 9.33037 5.08035 9.26839C4.51927 8.70732 3.60262 8.69752 3.03175 9.26839C2.46739 9.83275 2.46739 10.7527 3.03175 11.317C3.15897 11.4442 3.36774 11.4442 3.49496 11.317L3.68417 11.1278L4.66932 12.113L1.61597 15.1663C1.18864 15.1793 0.790667 15.3457 0.487293 15.6491C-0.161886 16.2983 -0.161886 17.3519 0.484027 17.9978C1.12877 18.6426 2.18088 18.6497 2.83276 17.9978C3.13613 17.6945 3.30575 17.2932 3.31554 16.8659L6.36889 13.8125L7.35732 14.801L7.16811 14.9902C7.10613 15.0521 7.07025 15.1337 7.07025 15.2218C7.07025 15.3066 7.10613 15.3914 7.16811 15.4501C7.74092 16.023 8.64959 16.0173 9.21671 15.4501C9.78107 14.8858 9.78107 13.9691 9.21671 13.4015C9.15473 13.3428 9.07318 13.3069 8.98511 13.3069C8.89703 13.3069 8.81548 13.3428 8.7535 13.4015L8.56429 13.594L8.02279 13.0525L10.44 10.6385L12.854 13.0525L12.3125 13.594L12.1233 13.4015C11.9993 13.2808 11.784 13.2808 11.6601 13.4015C11.0957 13.9691 11.0957 14.8858 11.6601 15.4501C12.2261 16.0162 13.1347 16.0241 13.7087 15.4501C13.7706 15.3914 13.8033 15.3066 13.8033 15.2218C13.8033 15.1337 13.7706 15.0521 13.7087 14.9902L13.5194 14.801L14.5079 13.8125L17.5612 16.8659C17.571 17.2769 17.7309 17.6847 18.0408 17.9978C18.7007 18.651 19.749 18.6416 20.3927 17.9978C21.0541 17.3365 21.0222 16.2818 20.3895 15.6491ZM16.1389 0.67924L17.8255 0.656402L17.8059 2.34618L12.5702 7.58514L11.9667 6.98164L16.3445 2.60388C16.4717 2.47665 16.4717 2.26789 16.3445 2.14066C16.2172 2.01344 16.0084 2.01344 15.8812 2.14066L11.5035 6.51842L10.9032 5.9182L16.1389 0.67924ZM8.30985 8.50833L8.91334 9.11182L6.49938 11.529L5.89261 10.9223L8.30985 8.50833ZM2.38583 17.5215C2.37932 17.5248 2.37605 17.5313 2.37279 17.5379C1.99393 17.9167 1.32662 17.9172 0.947242 17.5379C0.320468 16.9111 0.758098 15.8057 1.66165 15.8057C2.21621 15.8057 2.66965 16.2559 2.66965 16.8137C2.66965 17.091 2.55873 17.3356 2.38258 17.5183L2.38583 17.5215ZM3.15244 16.1091C2.98969 15.7705 2.75575 15.5155 2.37605 15.3294L5.13255 12.5729L5.90893 13.3526L3.15244 16.1091ZM8.33269 14.2855C8.45992 14.4128 8.66868 14.4128 8.7959 14.2855L8.93617 14.1453C9.04383 14.4291 8.98184 14.7618 8.75349 14.9902C8.53494 15.212 8.18915 15.2805 7.90861 15.1728L8.04888 15.0293C8.17609 14.9021 8.17609 14.6966 8.04888 14.5693C8.04888 14.5693 8.01951 14.54 8.00321 14.5237C7.81726 14.341 6.98869 13.5092 3.91576 10.433C3.78856 10.3057 3.57977 10.3057 3.45255 10.433L3.31228 10.5765C3.20462 10.2894 3.26661 9.9567 3.49496 9.72836C3.71351 9.50979 4.05605 9.4413 4.33986 9.54893L4.19959 9.68922C4.07236 9.81642 4.07236 10.0219 4.19959 10.1492C7.92819 13.8843 4.59103 10.5472 8.33269 14.2855ZM7.56284 12.5925L6.95933 11.989L9.37331 9.57176L9.98005 10.1785L7.56284 12.5925ZM3.06762 2.34618L3.05132 0.659648L4.73783 0.675974L10.2084 6.14654C10.2084 6.14654 10.2084 6.14654 10.2084 6.1498C10.2117 6.1498 10.2117 6.1498 10.2117 6.1498L11.2719 7.20999C11.2719 7.20999 11.2719 7.20999 11.2719 7.21326C11.2751 7.21326 11.2751 7.21326 11.2751 7.21326L12.3386 8.27671C12.3386 8.27671 12.3386 8.27671 12.3386 8.27998C12.3418 8.27998 12.3418 8.27998 12.3418 8.27998L14.9842 10.9223L14.3807 11.5258L4.99553 2.14066C4.86832 2.01344 4.65954 2.01344 4.53231 2.14066C4.40509 2.26789 4.40509 2.47341 4.53231 2.60061L13.9174 11.9857L13.3139 12.5892L3.06762 2.34618ZM14.0447 13.3526L12.8279 14.5693C12.7007 14.6966 12.7007 14.9021 12.8279 15.0293L12.9682 15.1728C12.6876 15.2805 12.3418 15.212 12.1233 14.9902C11.8949 14.7618 11.8329 14.4291 11.9406 14.1453L12.0809 14.2855C12.2081 14.4128 12.4168 14.4128 12.5441 14.2855L13.5423 13.2841H13.5456L13.7609 13.0688L14.6123 12.2174L15.4604 11.3692L15.6757 11.1539C15.6757 11.1506 15.6757 11.1506 15.679 11.1506L16.6772 10.1492C16.8044 10.0219 16.8044 9.81642 16.6772 9.68921L16.5369 9.54892C16.8207 9.44129 17.1633 9.50978 17.3818 9.72836C17.6102 9.95669 17.6721 10.2894 17.5645 10.5765L17.4242 10.433C17.297 10.3057 17.0882 10.3057 16.961 10.433L15.7442 11.653L14.0447 13.3526ZM17.7243 16.1091L14.9678 13.3526L15.7442 12.5762L18.5007 15.3327C18.1501 15.4977 17.8953 15.7457 17.7243 16.1091ZM19.8545 17.6031C19.5121 17.8965 18.8771 17.911 18.504 17.5379C18.0561 17.0979 18.1017 16.3041 18.7323 15.9362C18.7356 15.9362 18.7356 15.9362 18.7356 15.9362C19.1256 15.7261 19.6167 15.7938 19.9295 16.1123C20.3446 16.5274 20.3203 17.2231 19.8545 17.6031Z"
        fill="#DB1A28" />
</svg>    