<svg width="746" height="746" viewBox="0 0 746 746" fill="none" xmlns="http://www.w3.org/2000/svg">
    <g opacity="0.35">
        <mask id="mask0_7_783" style="mask-type:alpha" maskUnits="userSpaceOnUse" x="143" y="372"
            width="277" height="258">
            <circle cx="1.08375" cy="1.08375" r="1.08375" transform="matrix(1 0 0 -1 222 490)"
                fill="white" />
            <circle cx="1.17365" cy="1.17365" r="1.17365" transform="matrix(1 0 0 -1 266 401)"
                fill="white" />
            <circle cx="0.580065" cy="0.580065" r="0.580065" transform="matrix(1 0 0 -1 255 476)"
                fill="white" />
            <circle cx="0.834106" cy="0.834106" r="0.834106" transform="matrix(1 0 0 -1 334 533)"
                fill="white" />
            <circle cx="0.748674" cy="0.748674" r="0.748674" transform="matrix(1 0 0 -1 353 528)"
                fill="white" />
            <circle cx="1.30247" cy="1.30247" r="1.30247" transform="matrix(1 0 0 -1 331 567)"
                fill="white" />
            <circle cx="0.878585" cy="0.878585" r="0.878585" transform="matrix(1 0 0 -1 145 452)"
                fill="white" />
            <circle cx="1.42416" cy="1.42416" r="1.42416" transform="matrix(1 0 0 -1 399 604)"
                fill="white" />
            <circle cx="1.28336" cy="1.28336" r="1.28336" transform="matrix(1 0 0 -1 275 436)"
                fill="white" />
            <circle cx="1.14546" cy="1.14546" r="1.14546" transform="matrix(1 0 0 -1 264 585)"
                fill="white" />
            <circle cx="0.723266" cy="0.723266" r="0.723266" transform="matrix(1 0 0 -1 249 448)"
                fill="white" />
            <circle cx="0.717477" cy="0.717477" r="0.717477" transform="matrix(1 0 0 -1 218 472)"
                fill="white" />
            <circle cx="0.60827" cy="0.60827" r="0.60827" transform="matrix(1 0 0 -1 376 511)"
                fill="white" />
            <circle cx="1.03716" cy="1.03716" r="1.03716" transform="matrix(1 0 0 -1 269 377)"
                fill="white" />
            <circle cx="0.536829" cy="0.536829" r="0.536829" transform="matrix(1 0 0 -1 271 446)"
                fill="white" />
            <circle cx="1.03037" cy="1.03037" r="1.03037" transform="matrix(1 0 0 -1 248 625)"
                fill="white" />
            <circle cx="1.09384" cy="1.09384" r="1.09384" transform="matrix(1 0 0 -1 248 434)"
                fill="white" />
            <circle cx="1.05367" cy="1.05367" r="1.05367" transform="matrix(1 0 0 -1 279 623)"
                fill="white" />
            <circle cx="0.709651" cy="0.709651" r="0.709651" transform="matrix(1 0 0 -1 241 584)"
                fill="white" />
            <circle cx="1.17606" cy="1.17606" r="1.17606" transform="matrix(1 0 0 -1 359 612)"
                fill="white" />
            <circle cx="0.672004" cy="0.672004" r="0.672004" transform="matrix(1 0 0 -1 370 452)"
                fill="white" />
            <circle cx="1.34829" cy="1.34829" r="1.34829" transform="matrix(1 0 0 -1 396 394)"
                fill="white" />
            <circle cx="1.12473" cy="1.12473" r="1.12473" transform="matrix(1 0 0 -1 227 517)"
                fill="white" />
            <circle cx="1.37249" cy="1.37249" r="1.37249" transform="matrix(1 0 0 -1 271 498)"
                fill="white" />
            <circle cx="1.12798" cy="1.12798" r="1.12798" transform="matrix(1 0 0 -1 379 528)"
                fill="white" />
            <circle cx="1.24605" cy="1.24605" r="1.24605" transform="matrix(1 0 0 -1 211 487)"
                fill="white" />
            <circle cx="1.24181" cy="1.24181" r="1.24181" transform="matrix(1 0 0 -1 314 509)"
                fill="white" />
            <circle cx="0.901236" cy="0.901236" r="0.901236" transform="matrix(1 0 0 -1 395 496)"
                fill="white" />
            <circle cx="0.714611" cy="0.714611" r="0.714611" transform="matrix(1 0 0 -1 269 496)"
                fill="white" />
            <circle cx="1.05017" cy="1.05017" r="1.05017" transform="matrix(1 0 0 -1 358 568)"
                fill="white" />
            <circle cx="0.711145" cy="0.711145" r="0.711145" transform="matrix(1 0 0 -1 394 630)"
                fill="white" />
            <circle cx="1.35856" cy="1.35856" r="1.35856" transform="matrix(1 0 0 -1 356 543)"
                fill="white" />
            <circle cx="1.35063" cy="1.35063" r="1.35063" transform="matrix(1 0 0 -1 380 489)"
                fill="white" />
            <circle cx="0.63439" cy="0.63439" r="0.63439" transform="matrix(1 0 0 -1 186 427)"
                fill="white" />
            <circle cx="0.753421" cy="0.753421" r="0.753421" transform="matrix(1 0 0 -1 206 465)"
                fill="white" />
            <circle cx="0.669764" cy="0.669764" r="0.669764" transform="matrix(1 0 0 -1 217 547)"
                fill="white" />
            <circle cx="1.20379" cy="1.20379" r="1.20379" transform="matrix(1 0 0 -1 154 442)"
                fill="white" />
            <circle cx="0.581463" cy="0.581463" r="0.581463" transform="matrix(1 0 0 -1 206 570)"
                fill="white" />
            <circle cx="0.640496" cy="0.640496" r="0.640496" transform="matrix(1 0 0 -1 251 629)"
                fill="white" />
            <circle cx="1.08354" cy="1.08354" r="1.08354" transform="matrix(1 0 0 -1 304 570)"
                fill="white" />
            <circle cx="0.908667" cy="0.908667" r="0.908667" transform="matrix(1 0 0 -1 325 403)"
                fill="white" />
            <circle cx="1.31928" cy="1.31928" r="1.31928" transform="matrix(1 0 0 -1 237 531)"
                fill="white" />
            <circle cx="0.935172" cy="0.935172" r="0.935172" transform="matrix(1 0 0 -1 263 404)"
                fill="white" />
            <circle cx="0.763331" cy="0.763331" r="0.763331" transform="matrix(1 0 0 -1 269 469)"
                fill="white" />
            <circle cx="1.14939" cy="1.14939" r="1.14939" transform="matrix(1 0 0 -1 289 595)"
                fill="white" />
            <circle cx="0.775917" cy="0.775917" r="0.775917" transform="matrix(1 0 0 -1 386 378)"
                fill="white" />
            <circle cx="1.27879" cy="1.27879" r="1.27879" transform="matrix(1 0 0 -1 307 473)"
                fill="white" />
            <circle cx="1.40299" cy="1.40299" r="1.40299" transform="matrix(1 0 0 -1 271 455)"
                fill="white" />
            <circle cx="0.535748" cy="0.535748" r="0.535748" transform="matrix(1 0 0 -1 361 563)"
                fill="white" />
            <circle cx="1.43039" cy="1.43039" r="1.43039" transform="matrix(1 0 0 -1 275 620)"
                fill="white" />
            <circle cx="0.940244" cy="0.940244" r="0.940244" transform="matrix(1 0 0 -1 363 541)"
                fill="white" />
            <circle cx="0.653759" cy="0.653759" r="0.653759" transform="matrix(1 0 0 -1 143 475)"
                fill="white" />
            <circle cx="1.21027" cy="1.21027" r="1.21027" transform="matrix(1 0 0 -1 258 545)"
                fill="white" />
            <circle cx="0.801549" cy="0.801549" r="0.801549" transform="matrix(1 0 0 -1 203 464)"
                fill="white" />
            <circle cx="0.660021" cy="0.660021" r="0.660021" transform="matrix(1 0 0 -1 413 557)"
                fill="white" />
            <circle cx="0.760704" cy="0.760704" r="0.760704" transform="matrix(1 0 0 -1 242 465)"
                fill="white" />
            <circle cx="0.556338" cy="0.556338" r="0.556338" transform="matrix(1 0 0 -1 155 544)"
                fill="white" />
            <circle cx="0.955494" cy="0.955494" r="0.955494" transform="matrix(1 0 0 -1 287 509)"
                fill="white" />
            <circle cx="1.37126" cy="1.37126" r="1.37126" transform="matrix(1 0 0 -1 321 481)"
                fill="white" />
            <circle cx="1.21879" cy="1.21879" r="1.21879" transform="matrix(1 0 0 -1 290 426)"
                fill="white" />
            <circle cx="1.4606" cy="1.4606" r="1.4606" transform="matrix(1 0 0 -1 145 407)"
                fill="white" />
            <circle cx="1.34899" cy="1.34899" r="1.34899" transform="matrix(1 0 0 -1 399 558)"
                fill="white" />
            <circle cx="0.767035" cy="0.767035" r="0.767035" transform="matrix(1 0 0 -1 272 553)"
                fill="white" />
            <circle cx="0.695157" cy="0.695157" r="0.695157" transform="matrix(1 0 0 -1 344 563)"
                fill="white" />
            <circle cx="1.1953" cy="1.1953" r="1.1953" transform="matrix(1 0 0 -1 176 518)"
                fill="white" />
            <circle cx="0.664765" cy="0.664765" r="0.664765" transform="matrix(1 0 0 -1 320 384)"
                fill="white" />
            <circle cx="0.867177" cy="0.867177" r="0.867177" transform="matrix(1 0 0 -1 383 596)"
                fill="white" />
            <circle cx="1.16738" cy="1.16738" r="1.16738" transform="matrix(1 0 0 -1 261 450)"
                fill="white" />
            <circle cx="0.534024" cy="0.534024" r="0.534024" transform="matrix(1 0 0 -1 236 590)"
                fill="white" />
            <circle cx="1.42923" cy="1.42923" r="1.42923" transform="matrix(1 0 0 -1 202 535)"
                fill="white" />
            <circle cx="1.16825" cy="1.16825" r="1.16825" transform="matrix(1 0 0 -1 272 507)"
                fill="white" />
            <circle cx="0.986444" cy="0.986444" r="0.986444" transform="matrix(1 0 0 -1 189 595)"
                fill="white" />
            <circle cx="0.691034" cy="0.691034" r="0.691034" transform="matrix(1 0 0 -1 397 494)"
                fill="white" />
            <circle cx="0.771477" cy="0.771477" r="0.771477" transform="matrix(1 0 0 -1 279 468)"
                fill="white" />
            <circle cx="1.207" cy="1.207" r="1.207" transform="matrix(1 0 0 -1 161 595)"
                fill="white" />
            <circle cx="0.903477" cy="0.903477" r="0.903477" transform="matrix(1 0 0 -1 240 605)"
                fill="white" />
            <circle cx="1.45164" cy="1.45164" r="1.45164" transform="matrix(1 0 0 -1 147 417)"
                fill="white" />
            <circle cx="0.5888" cy="0.5888" r="0.5888" transform="matrix(1 0 0 -1 229 387)"
                fill="white" />
            <circle cx="1.43414" cy="1.43414" r="1.43414" transform="matrix(1 0 0 -1 249 501)"
                fill="white" />
            <circle cx="1.39307" cy="1.39307" r="1.39307" transform="matrix(1 0 0 -1 399 570)"
                fill="white" />
            <circle cx="1.2355" cy="1.2355" r="1.2355" transform="matrix(1 0 0 -1 325 614)"
                fill="white" />
            <circle cx="1.39273" cy="1.39273" r="1.39273" transform="matrix(1 0 0 -1 298 389)"
                fill="white" />
            <circle cx="0.70001" cy="0.70001" r="0.70001" transform="matrix(1 0 0 -1 283 376)"
                fill="white" />
            <circle cx="0.883558" cy="0.883558" r="0.883558" transform="matrix(1 0 0 -1 187 461)"
                fill="white" />
            <circle cx="1.04844" cy="1.04844" r="1.04844" transform="matrix(1 0 0 -1 386 393)"
                fill="white" />
            <circle cx="1.13029" cy="1.13029" r="1.13029" transform="matrix(1 0 0 -1 242 621)"
                fill="white" />
            <circle cx="1.00362" cy="1.00362" r="1.00362" transform="matrix(1 0 0 -1 402 532)"
                fill="white" />
            <circle cx="0.94071" cy="0.94071" r="0.94071" transform="matrix(1 0 0 -1 412 467)"
                fill="white" />
            <circle cx="0.788894" cy="0.788894" r="0.788894" transform="matrix(1 0 0 -1 162 442)"
                fill="white" />
            <circle cx="0.579109" cy="0.579109" r="0.579109" transform="matrix(1 0 0 -1 245 530)"
                fill="white" />
            <circle cx="1.08337" cy="1.08337" r="1.08337" transform="matrix(1 0 0 -1 354 524)"
                fill="white" />
            <circle cx="1.02007" cy="1.02007" r="1.02007" transform="matrix(1 0 0 -1 188 398)"
                fill="white" />
            <circle cx="0.95997" cy="0.95997" r="0.95997" transform="matrix(1 0 0 -1 325 488)"
                fill="white" />
            <circle cx="0.805794" cy="0.805794" r="0.805794" transform="matrix(1 0 0 -1 230 443)"
                fill="white" />
            <circle cx="0.759475" cy="0.759475" r="0.759475" transform="matrix(1 0 0 -1 333 487)"
                fill="white" />
            <circle cx="1.20385" cy="1.20385" r="1.20385" transform="matrix(1 0 0 -1 208 552)"
                fill="white" />
            <circle cx="0.656539" cy="0.656539" r="0.656539" transform="matrix(1 0 0 -1 404 383)"
                fill="white" />
            <circle cx="0.680527" cy="0.680527" r="0.680527" transform="matrix(1 0 0 -1 193 504)"
                fill="white" />
            <circle cx="0.90551" cy="0.90551" r="0.90551" transform="matrix(1 0 0 -1 396 436)"
                fill="white" />
            <circle cx="0.613658" cy="0.613658" r="0.613658" transform="matrix(1 0 0 -1 305 552)"
                fill="white" />
            <circle cx="1.39471" cy="1.39471" r="1.39471" transform="matrix(1 0 0 -1 328 529)"
                fill="white" />
            <circle cx="1.31263" cy="1.31263" r="1.31263" transform="matrix(1 0 0 -1 235 398)"
                fill="white" />
            <circle cx="1.08391" cy="1.08391" r="1.08391" transform="matrix(1 0 0 -1 274 596)"
                fill="white" />
            <circle cx="1.06465" cy="1.06465" r="1.06465" transform="matrix(1 0 0 -1 188 406)"
                fill="white" />
            <circle cx="1.18096" cy="1.18096" r="1.18096" transform="matrix(1 0 0 -1 167 504)"
                fill="white" />
            <circle cx="0.537105" cy="0.537105" r="0.537105" transform="matrix(1 0 0 -1 174 506)"
                fill="white" />
            <circle cx="0.89979" cy="0.89979" r="0.89979" transform="matrix(1 0 0 -1 212 440)"
                fill="white" />
            <circle cx="0.65544" cy="0.65544" r="0.65544" transform="matrix(1 0 0 -1 216 479)"
                fill="white" />
            <circle cx="0.627357" cy="0.627357" r="0.627357" transform="matrix(1 0 0 -1 156 374)"
                fill="white" />
            <circle cx="1.27411" cy="1.27411" r="1.27411" transform="matrix(1 0 0 -1 210 612)"
                fill="white" />
            <circle cx="0.77819" cy="0.77819" r="0.77819" transform="matrix(1 0 0 -1 191 621)"
                fill="white" />
            <circle cx="1.19961" cy="1.19961" r="1.19961" transform="matrix(1 0 0 -1 338 514)"
                fill="white" />
            <circle cx="0.724128" cy="0.724128" r="0.724128" transform="matrix(1 0 0 -1 202 586)"
                fill="white" />
            <circle cx="1.49929" cy="1.49929" r="1.49929" transform="matrix(1 0 0 -1 153 381)"
                fill="white" />
            <circle cx="0.944922" cy="0.944922" r="0.944922" transform="matrix(1 0 0 -1 312 603)"
                fill="white" />
            <circle cx="1.26622" cy="1.26622" r="1.26622" transform="matrix(1 0 0 -1 187 468)"
                fill="white" />
            <circle cx="1.26309" cy="1.26309" r="1.26309" transform="matrix(1 0 0 -1 188 388)"
                fill="white" />
            <circle cx="0.91096" cy="0.91096" r="0.91096" transform="matrix(1 0 0 -1 288 591)"
                fill="white" />
            <circle cx="0.688885" cy="0.688885" r="0.688885" transform="matrix(1 0 0 -1 189 383)"
                fill="white" />
            <circle cx="0.970424" cy="0.970424" r="0.970424" transform="matrix(1 0 0 -1 332 395)"
                fill="white" />
            <circle cx="0.648915" cy="0.648915" r="0.648915" transform="matrix(1 0 0 -1 388 389)"
                fill="white" />
            <circle cx="1.12175" cy="1.12175" r="1.12175" transform="matrix(1 0 0 -1 326 393)"
                fill="white" />
            <circle cx="1.36238" cy="1.36238" r="1.36238" transform="matrix(1 0 0 -1 276 587)"
                fill="white" />
            <circle cx="1.45247" cy="1.45247" r="1.45247" transform="matrix(1 0 0 -1 247 397)"
                fill="white" />
            <circle cx="0.881873" cy="0.881873" r="0.881873" transform="matrix(1 0 0 -1 380 457)"
                fill="white" />
            <circle cx="1.39252" cy="1.39252" r="1.39252" transform="matrix(1 0 0 -1 181 518)"
                fill="white" />
            <circle cx="0.927931" cy="0.927931" r="0.927931" transform="matrix(1 0 0 -1 263 519)"
                fill="white" />
            <circle cx="0.673443" cy="0.673443" r="0.673443" transform="matrix(1 0 0 -1 216 480)"
                fill="white" />
            <circle cx="1.27651" cy="1.27651" r="1.27651" transform="matrix(1 0 0 -1 152 380)"
                fill="white" />
            <circle cx="1.03213" cy="1.03213" r="1.03213" transform="matrix(1 0 0 -1 155 451)"
                fill="white" />
            <circle cx="1.20768" cy="1.20768" r="1.20768" transform="matrix(1 0 0 -1 349 586)"
                fill="white" />
            <circle cx="0.683353" cy="0.683353" r="0.683353" transform="matrix(1 0 0 -1 248 585)"
                fill="white" />
            <circle cx="0.935121" cy="0.935121" r="0.935121" transform="matrix(1 0 0 -1 203 408)"
                fill="white" />
            <circle cx="1.40266" cy="1.40266" r="1.40266" transform="matrix(1 0 0 -1 290 581)"
                fill="white" />
            <circle cx="1.11552" cy="1.11552" r="1.11552" transform="matrix(1 0 0 -1 384 448)"
                fill="white" />
            <circle cx="0.639666" cy="0.639666" r="0.639666" transform="matrix(1 0 0 -1 284 497)"
                fill="white" />
            <circle cx="0.552628" cy="0.552628" r="0.552628" transform="matrix(1 0 0 -1 189 401)"
                fill="white" />
            <circle cx="1.1879" cy="1.1879" r="1.1879" transform="matrix(1 0 0 -1 251 596)"
                fill="white" />
            <circle cx="0.507265" cy="0.507265" r="0.507265" transform="matrix(1 0 0 -1 179 529)"
                fill="white" />
            <circle cx="0.914139" cy="0.914139" r="0.914139" transform="matrix(1 0 0 -1 276 409)"
                fill="white" />
            <circle cx="0.696903" cy="0.696903" r="0.696903" transform="matrix(1 0 0 -1 221 545)"
                fill="white" />
            <circle cx="1.09339" cy="1.09339" r="1.09339" transform="matrix(1 0 0 -1 286 628)"
                fill="white" />
            <circle cx="1.47238" cy="1.47238" r="1.47238" transform="matrix(1 0 0 -1 288 545)"
                fill="white" />
        </mask>
        <g mask="url(#mask0_7_783)">
            <g filter="url(#filter0_f_7_783)">
                <rect x="140" y="380" width="260" height="245" fill="url(#paint0_radial_7_783)" />
            </g>
        </g>
        <g filter="url(#filter1_f_7_783)">
            <circle cx="373" cy="373" r="122" fill="url(#paint1_radial_7_783)" />
        </g>
    </g>
    <defs>
        <filter id="filter0_f_7_783" x="94.4" y="334.4" width="351.2" height="336.2"
            filterUnits="userSpaceOnUse" color-interpolation-filters="sRGB">
            <feFlood flood-opacity="0" result="BackgroundImageFix" />
            <feBlend mode="normal" in="SourceGraphic" in2="BackgroundImageFix" result="shape" />
            <feGaussianBlur stdDeviation="22.8" result="effect1_foregroundBlur_7_783" />
        </filter>
        <filter id="filter1_f_7_783" x="0.699997" y="0.699997" width="744.6" height="744.6"
            filterUnits="userSpaceOnUse" color-interpolation-filters="sRGB">
            <feFlood flood-opacity="0" result="BackgroundImageFix" />
            <feBlend mode="normal" in="SourceGraphic" in2="BackgroundImageFix" result="shape" />
            <feGaussianBlur stdDeviation="125.15" result="effect1_foregroundBlur_7_783" />
        </filter>
        <radialGradient id="paint0_radial_7_783" cx="0" cy="0" r="1" gradientUnits="userSpaceOnUse"
            gradientTransform="translate(330.951 438.902) rotate(138.1) scale(214.745 228.248)">
            <stop stop-color="#ED3440" />
            <stop offset="1" stop-color="#ED3440" stop-opacity="0" />
        </radialGradient>
        <radialGradient id="paint1_radial_7_783" cx="0" cy="0" r="1" gradientUnits="userSpaceOnUse"
            gradientTransform="translate(373 373) rotate(90) scale(122)">
            <stop stop-color="#ED3440" />
            <stop offset="1" stop-color="#ED3440" stop-opacity="0" />
        </radialGradient>
    </defs>
</svg>
    